<svg xmlns="http://www.w3.org/2000/svg" enable-background="new 0 0 3800 3000" viewBox="0 0 3800 3000"><path fill="#d1def2" d="M3562.73 2498.88c-13.54-11.8-31.32-16.2-48.5-19.76-119.86-24.81-242.86-24.89-364.96-24.87l-2770.39.3 38.9 16.21c-49.6 6.61-101.04 13.91-143.17 42.56-42.14 28.64-72.01 85.21-55.94 135.63 7.5 23.54 23.87 42.82 42.2 58.21 121.34 101.87 298.63 41.21 450.55 71.17 94.4 18.62 178.78 72.96 269.08 107.7 131.26 50.49 276.57 58.7 412.11 23.27 79.01-20.65 154.28-55.59 233.5-75.3 100.32-24.96 204.43-24.93 307.44-24.78 172.78.26 345.55.51 518.33.77 94.66.14 189.51.29 283.64 10.91 158.66 17.91 315.87 65.52 475 53.32 159.13-12.2 328.78-105.17 370.52-269.21 9.34-36.75 9.37-82.01-18.31-106.13z"/><path fill="#e6ebf4" d="m3433.26 2603.72-2925.89 8.53s-538.24-573.39-150.91-1071.76c387.33-498.37 333.84-23.64 800.31-602.92 747.24-927.95 1162.6 605.28 1548.79 481.33 1016.6-326.28 1153.45 999.69 727.7 1184.82z"/><path fill="#5ca88d" d="M395.21 2388.59h9.38l-1.48 63.18h-7.9z"/><path fill="#7ac094" d="M483.16 2356.09c3.53-3.07 99.91-90.83 88.56-200.96-11.35-110.13-103.32-137.38-77.21-265.68s0-216.86-79.48-218c-79.48-1.13-115.81 76.07-86.29 213.45 29.52 137.38-96.95 191.12-90.83 291.8 7.06 116.05 98.79 306.56 245.25 179.39z"/><path fill="#f2faff" d="M360 1688.62c1.38 6.11 4.97 12.15 10.86 14.78 5.43 2.43 11.68 1.93 17.38.93 10.56-1.85 21.25-5.82 32.11-4.4 5.46.71 10.66 3.12 15.56 5.54 5.39 2.67 10.49 5.88 15.26 9.54 9.13 7.02 17.03 15.77 22.48 25.95 6.21 11.59 8.37 24.38 8.74 37.41.42 15.04-.97 30.11 1.75 45.01 1.81 9.91 4.87 20.78 11.81 28.4 1.34 1.46 2.82 2.64 4.38 3.67 15.09-109.7-13.05-182.99-85.29-184.02-21.81-.31-40.31 5.37-55.14 16.49.04.25.05.46.1.7z" opacity=".2"/><path fill="#202234" d="M418.42 2131.11c-11.04-20.33-11.19-45.59-5.11-67.43 3.25-11.7 8.24-22.9 13.95-33.59 2.31-4.32 5.16-8.4 7.26-12.83 1.52-3.19 1.22-5.99-.02-9.24-2.13-5.63-5.15-10.99-7.54-16.53-2.4-5.58-4.71-11.21-6.67-16.96-4.1-11.97-5.75-24.08-6.71-36.64-.94-12.4-.49-25.23 3.46-37.11 3.53-10.61 11.18-19.18 15.04-29.56-6.31-3.86-11.81-8.84-16.35-14.71-5.24-6.76-9.31-14.29-12.51-22.26-.03 17.57-.03 35.14-.08 52.72-.18 70.03-.47 140.06-.64 210.09-.15 62.4-.14 124.81-.13 187.21 1.3-4.49 2.68-8.95 4.25-13.36 14.05-39.56 37.48-74.68 60.18-109.69-20.37.78-38.7-12.28-48.38-30.11z" opacity=".15"/><path fill="#202234" d="M430.13 2389.9c-11.15.12-22.41-1.75-32.42-6.84-10.56-5.37-18.85-14.23-24.69-24.45-3.6-6.3-5.74-12.54-6.96-19.67-1.31-7.67-2.69-14.9-7.73-21.08-8.78-10.77-23.77-12.27-35.79-17.71-11.27-5.1-19.9-14.79-26.59-24.98-6.71-10.23-11.44-21.73-14.7-33.49-6.89-24.91-7.63-51.52-4.45-77.06 2.95-23.63 9.18-47.05 20.9-67.9 13.97-24.86 32.34-47.04 45.42-72.41 6.41-12.44 11.19-25.7 13.27-39.58 2.48-16.54.93-33.2-2.84-49.41-4.16-17.89-10.78-35.07-17.59-52.09-6.35-15.86-11.78-31.88-15.4-48.58 1.66 15.73 4.36 32.48 8.18 50.26 29.52 137.38-96.95 191.12-90.83 291.8 6.16 101.36 76.91 259.49 192.31 213.2-.03-.01-.06-.01-.09-.01z" opacity=".15"/><path fill="#b8debf" d="M503.9 2130.75a1.19 1.19 0 0 0-1.69 0l-100.69 100.69v-171.21l56.11-59.26c.46-.48.43-1.23-.04-1.69a1.19 1.19 0 0 0-1.69.05l-54.38 57.43v-154.05l40.77-41.38c.46-.47.46-1.23-.01-1.69a1.19 1.19 0 0 0-1.69.02l-39.06 39.65v-132.48c0-.66-.53-1.19-1.19-1.19-.66 0-1.2.53-1.2 1.19v184.75l-31.01-26.42c-.5-.42-1.26-.37-1.68.14-.43.5-.37 1.26.13 1.68l32.56 27.74v173.99l-61.44-61.44a1.19 1.19 0 0 0-1.69 0 1.19 1.19 0 0 0 0 1.69l63.13 63.12v262.63c0 .66.53 1.19 1.2 1.19.66 0 1.19-.53 1.19-1.19v-159.9l102.38-102.38c.46-.46.46-1.22-.01-1.68z"/><path fill="#5ca88d" d="M738.1 2314.37h20.49l-3.24 138.03H738.1z"/><path fill="#7ac094" d="M930.26 2243.36c7.72-6.71 218.29-198.45 193.49-439.07-24.81-240.62-225.74-300.15-168.68-580.46 57.05-280.31 0-473.8-173.64-476.28-173.65-2.48-253.02 166.2-188.53 466.35 64.5 300.15-211.81 417.55-198.45 637.52 15.4 253.55 215.81 669.76 535.81 391.94z"/><path fill="#f2faff" d="M661.17 785.05c3 13.35 10.86 26.55 23.72 32.3 11.87 5.31 25.51 4.23 37.98 2.04 23.08-4.05 46.43-12.71 70.16-9.6 11.94 1.56 23.29 6.81 34 12.11 11.78 5.82 22.92 12.84 33.33 20.85 19.94 15.32 37.21 34.45 49.13 56.69 13.57 25.32 18.28 53.25 19.08 81.73.93 32.86-2.12 65.78 3.82 98.34 3.95 21.66 10.64 45.4 25.81 62.06 2.92 3.2 6.17 5.77 9.57 8.03 32.97-239.68-28.5-399.79-186.35-402.05-47.65-.68-88.06 11.73-120.48 36.03.1.5.12.97.23 1.47z" opacity=".2"/><path fill="#202234" d="M788.8 1751.81c-24.13-44.42-24.44-99.59-11.18-147.32 7.11-25.57 18-50.02 30.49-73.38 5.04-9.43 11.28-18.36 15.87-28.02 3.31-6.97 2.65-13.08-.03-20.18-4.65-12.3-11.26-24.02-16.46-36.12-5.25-12.2-10.28-24.49-14.58-37.05-8.95-26.15-12.56-52.61-14.66-80.06-2.06-27.09-1.07-55.11 7.57-81.09 7.72-23.18 24.42-41.9 32.85-64.58-13.79-8.43-25.8-19.32-35.71-32.13-11.45-14.78-20.34-31.23-27.34-48.62-.07 38.39-.07 76.78-.17 115.17-.4 153-1.02 306-1.4 459.01-.34 136.34-.3 272.68-.3 409.02 2.83-9.8 5.86-19.55 9.28-29.18 30.7-86.43 81.89-163.15 131.5-239.64-44.52 1.67-84.57-26.87-105.73-65.83z" opacity=".15"/><path fill="#202234" d="M814.38 2317.22c-24.36.27-48.96-3.82-70.82-14.94-23.08-11.74-41.19-31.1-53.96-53.41-7.87-13.76-12.53-27.39-15.2-42.98-2.87-16.75-5.87-32.55-16.88-46.05-19.18-23.54-51.94-26.81-78.19-38.69-24.61-11.15-43.48-32.31-58.08-54.58-14.65-22.34-25-47.47-32.11-73.16-15.06-54.41-16.68-112.57-9.72-168.37 6.44-51.64 20.05-102.8 45.66-148.36 30.52-54.3 70.65-102.78 99.22-158.19 14.01-27.18 24.45-56.15 29-86.47 5.42-36.13 2.04-72.53-6.2-107.95-9.09-39.1-23.55-76.62-38.43-113.82-13.86-34.66-25.73-69.66-33.65-106.14 3.64 34.36 9.53 70.95 17.87 109.8 64.5 300.15-211.81 417.55-198.45 637.52 13.45 221.45 168.04 566.93 420.15 465.79-.07-.01-.14 0-.21 0z" opacity=".15"/><path fill="#b8debf" d="M975.57 1751.02a2.607 2.607 0 0 0-3.69 0L751.9 1971v-374.05l122.59-129.48c.99-1.04.95-2.7-.1-3.69-1.04-1-2.7-.94-3.69.1l-118.8 125.47V1252.8l89.06-90.4c1.01-1.02 1-2.68-.03-3.69a2.598 2.598 0 0 0-3.69.03l-85.35 86.63V955.92c0-1.44-1.17-2.61-2.61-2.61-1.45 0-2.61 1.17-2.61 2.61v403.65l-67.74-57.73c-1.1-.93-2.74-.8-3.68.3-.93 1.1-.81 2.74.29 3.68l71.13 60.61v380.14l-134.23-134.23a2.607 2.607 0 0 0-3.69 0 2.626 2.626 0 0 0 0 3.69l137.92 137.92v573.8c0 1.44 1.16 2.61 2.61 2.61 1.44 0 2.61-1.17 2.61-2.61V1978.4l223.68-223.68a2.638 2.638 0 0 0 0-3.7z"/><path fill="#5ca88d" d="M3287.25 2317.33h13.86l-2.19 93.34h-11.67z"/><path fill="#7ac094" d="M3417.19 2269.32c5.22-4.53 147.61-134.19 130.83-296.9-16.77-162.7-152.64-202.96-114.06-392.5 38.58-189.54 0-320.38-117.41-322.06-117.42-1.68-171.09 112.38-127.48 315.35 43.61 202.96-143.23 282.35-134.19 431.08 10.41 171.46 145.93 452.89 362.31 265.03z"/><path fill="#f2faff" d="M3235.23 1283.22c2.03 9.03 7.34 17.95 16.05 21.84 8.02 3.59 17.24 2.86 25.68 1.38 15.61-2.74 31.39-8.6 47.44-6.49 8.07 1.06 15.75 4.61 22.99 8.19 7.96 3.94 15.5 8.68 22.54 14.1 13.48 10.36 25.16 23.3 33.22 38.33 9.18 17.12 12.36 36.01 12.9 55.27.63 22.22-1.43 44.48 2.58 66.5 2.67 14.65 7.19 30.7 17.45 41.96 1.97 2.16 4.17 3.9 6.47 5.43 22.3-162.07-19.27-270.34-126.01-271.86-32.22-.46-59.55 7.93-81.47 24.36.07.33.09.65.16.99z" opacity=".2"/><path fill="#202234" d="M3321.54 1936.94c-16.31-30.04-16.53-67.35-7.56-99.62 4.81-17.29 12.17-33.82 20.61-49.62 3.41-6.38 7.63-12.41 10.73-18.95 2.24-4.72 1.79-8.85-.02-13.65-3.14-8.32-7.61-16.24-11.13-24.43-3.54-8.25-6.95-16.56-9.86-25.06-6.05-17.68-8.5-35.57-9.91-54.13-1.39-18.32-.72-37.27 5.12-54.83 5.22-15.67 16.51-28.33 22.21-43.67-9.33-5.7-17.44-13.07-24.15-21.72-7.74-10-13.75-21.12-18.49-32.88-.04 25.96-.05 51.92-.11 77.88-.27 103.46-.69 206.92-.95 310.38-.23 92.19-.2 184.38-.2 276.58 1.91-6.63 3.96-13.22 6.28-19.73 20.76-58.44 55.37-110.32 88.92-162.04-30.1 1.13-57.19-18.17-71.49-44.51z" opacity=".15"/><path fill="#202234" d="M3338.83 2319.26c-16.47.18-33.11-2.58-47.89-10.11-15.6-7.94-27.85-21.03-36.48-36.11-5.32-9.3-8.47-18.52-10.28-29.07-1.94-11.33-3.97-22.01-11.41-31.14-12.97-15.92-35.12-18.13-52.87-26.17-16.64-7.54-29.4-21.85-39.28-36.91-9.91-15.11-16.91-32.1-21.71-49.47-10.18-36.79-11.28-76.12-6.57-113.85 4.36-34.92 13.56-69.51 30.87-100.32 20.64-36.72 47.77-69.5 67.09-106.97 9.48-18.38 16.53-37.97 19.61-58.47 3.67-24.43 1.38-49.04-4.19-72.99-6.15-26.44-15.93-51.81-25.99-76.96-9.37-23.43-17.4-47.11-22.76-71.77 2.46 23.23 6.44 47.98 12.09 74.25 43.61 202.96-143.23 282.35-134.19 431.08 9.1 149.74 113.62 383.35 284.1 314.97-.04.01-.09.01-.14.01z" opacity=".15"/><path fill="#b8debf" d="M3447.83 1936.4c-.69-.69-1.81-.69-2.5 0l-148.75 148.75v-252.93l82.89-87.55c.67-.7.64-1.82-.07-2.49-.71-.67-1.82-.64-2.49.07l-80.33 84.84v-227.58l60.22-61.13c.68-.69.68-1.81-.02-2.49-.7-.69-1.81-.68-2.49.02l-57.71 58.58v-195.73c0-.98-.79-1.76-1.76-1.76s-1.76.79-1.76 1.76v272.94l-45.81-39.03c-.74-.63-1.85-.55-2.49.2-.63.74-.54 1.85.2 2.49l48.1 40.98v257.05l-90.77-90.76c-.69-.69-1.81-.69-2.5 0s-.69 1.81 0 2.49l93.26 93.26v388c0 .97.79 1.76 1.76 1.76s1.76-.79 1.76-1.76v-236.23l151.25-151.25c.69-.69.69-1.81.01-2.5z"/><path fill="#394ca4" d="M356.33 2503.23s28.14-204.27-27.89-184.11c-56.03 20.16-30.32 102.03 27.89 184.11z"/><path fill="#100959" d="M360.03 2501.26s-114.58-201.49-193.62-132.21c-79.05 69.28 193.62 132.21 193.62 132.21z"/><path fill="#f2faff" d="M170.8 2371.3c2.29 6.29 6.05 11.63 12.84 13.27 8.48 2.05 17.72-.44 26.25-.92 9.72-.55 19.05.9 27.86 5.13 8.52 4.09 15.81 10.28 23 16.29 7.22 6.03 14.57 12.6 23.01 16.86 8.01 4.05 17.51 5.78 26.31 7.16h.03c-39.56-48.6-95.5-97.88-140.68-62.52.36 1.6.81 3.18 1.38 4.73z" opacity=".5"/><path fill="#4094f2" d="M198.8 2612.26h989.15l-14.19-49.44-33.37-117.12c-23.64-82.67-105.77-134.41-190.61-119.96l-42.82 7.43c-3.24.54-6.35.81-9.46.81-18.91 0-36.88-9.46-47.55-25.53-73.49-110.23-239.65-96.59-294.22 24.18l-7.3 16.21c-12.87 28.6-46.46 41.38-75.09 28.57l-42.71-19.12c-24.99-11.21-52.82-2.84-68.22 16.89-5.68 7.16-9.73 15.8-11.35 25.53l-6.35 37.01c-1.62 9.19-5.14 17.29-10.14 24.05-.95 1.22-1.89 2.43-2.84 3.51-8.65 10-20.4 16.62-33.23 18.92-3.24.67-6.75.94-10.13.94-10.72 0-21.58-2.94-31.44-9.52-22.24-14.85-52.05-11.14-70.96 7.76l-28.7 28.69c-36.93 36.97-10.75 100.19 41.53 100.19z"/><path fill="#f2faff" d="M160.09 2533.31c5.79-8.62 9.28-18.65 15.51-26.97 12.88-17.2 36.46-20.66 56.52-17.29 13.49 2.26 26.22 7.1 40.11 5.86 10.84-.97 21.62-2.67 32.14-5.44 20.67-5.44 41.61-15.56 53.21-34.33 11.54-18.66 6.04-43.38 19.68-61.1 14.67-19.05 39.94-17.26 60.3-9.81 11.41 4.17 21.53 11.18 32.98 15.11 13.43 4.62 27.86 5.2 41.68 2.04 7.15-1.64 14.08-4.17 20.66-7.41 4.08-2.01 7.8-4.19 10.68-7.78 4.73-5.9 6.51-13.71 6.24-21.15-.17-4.53-1.17-9.05-2.9-13.21-13.81 26.46-45.97 37.93-73.56 25.58l-42.71-19.12c-24.99-11.21-52.82-2.84-68.22 16.89-5.68 7.16-9.73 15.81-11.35 25.53l-6.35 37.01c-1.62 9.18-5.14 17.29-10.14 24.05-.95 1.22-1.89 2.43-2.84 3.51-8.65 10-20.4 16.62-33.23 18.92-3.24.67-6.75.94-10.13.94-10.72 0-21.58-2.94-31.44-9.52-22.24-14.85-52.05-11.14-70.96 7.76l-28.7 28.69c-10.43 10.43-15.83 22.95-17.03 35.55 8.27-1.81 14.97-7.04 19.85-14.31z" opacity=".2"/><path fill="#f2faff" d="M286.1 2612.26h901.85l-14.19-49.44c-44.58-39.99-106.18-59.57-168.86-48.77l-33.37 5.67-17.97 2.97c-3.91.68-7.83.94-11.62.94-8.38 0-16.62-1.48-24.32-4.46-12.97-5-24.32-13.78-32.42-25.94-11.35-17.15-24.72-31.75-39.31-43.77a160.39 160.39 0 0 0-17.56-13.1c-32.83-21.75-70.52-32.56-108.34-32.96-22.15-.41-44.17 2.84-65.25 9.72-51.2 16.21-96.59 53.09-121.85 109.15l-8.78 19.18c-15.54 34.45-55.92 49.71-90.24 34.31l-25.94-11.62-24.99-11.21c-11.35-5.13-23.24-6.75-34.58-5.67-29.45 2.83-55.39 24.72-60.79 56.46l-1.47 8.54z" opacity=".25"/><path fill="#100959" d="M408.4 2429.94c0 9.71 7.87 17.58 17.58 17.58 9.71 0 17.58-7.87 17.58-17.58 0-9.71-7.87-17.59-17.58-17.59-9.71.01-17.58 7.88-17.58 17.59z"/><path fill="#202234" d="M412.47 2434.1c0 9.71 7.87 17.58 17.58 17.58 9.71 0 17.58-7.87 17.58-17.58 0-9.71-7.87-17.59-17.58-17.59-9.71.01-17.58 7.88-17.58 17.59z" opacity=".15"/><path fill="#394ca4" d="M663.37 2564.24c0 9.71 7.87 17.58 17.58 17.58 9.71 0 17.58-7.87 17.58-17.58 0-9.71-7.87-17.58-17.58-17.58-9.71-.01-17.58 7.87-17.58 17.58z"/><path fill="#202234" d="M595.9 2340.74c0 18.71 15.17 33.89 33.88 33.89s33.89-15.17 33.89-33.89-15.17-33.89-33.89-33.89c-18.71 0-33.88 15.17-33.88 33.89z" opacity=".15"/><path fill="#394ca4" d="M600.15 2328.69c0 18.71 15.17 33.88 33.88 33.88 18.72 0 33.89-15.17 33.89-33.88 0-18.72-15.17-33.89-33.89-33.89-18.71.01-33.88 15.18-33.88 33.89z"/><path fill="#100959" d="M409.04 2603s79.29-99.98 43.1-106.87c-36.2-6.89-48.27 44.82-43.1 106.87z"/><path fill="#f2faff" d="M411.58 2541.54c3.7-.88 6.01-3.46 7.59-6.8 3.18-6.71 2.95-14.56 6.61-21.07 1.84-3.27 4.71-5.78 8.1-7.35 3.36-1.54 7.1-2.32 10.29-4.21 3.09-1.83 3.65-4.05 1.27-6.59-18.94.26-30.12 18.67-34.86 46.2.34-.06.68-.1 1-.18z" opacity=".5"/><path fill="#394ca4" d="M409.04 2603s-49.99-134.45-105.15-99.98C248.73 2537.5 409.04 2603 409.04 2603z"/><path fill="#f2faff" d="M306.14 2501.83c.57 1.29 1.86 2.47 2.86 2.87 2.2.9 5.04.55 7.37.5 5.12-.1 10.4-.46 15.45.56 5.44 1.09 10.64 4.24 15.12 7.41 8.23 5.81 13.55 14.87 22 20.29 1.37.88 3.31 1.85 5.51 2.68-18.55-26.74-42.8-48.19-68.31-34.31z" opacity=".2"/><path fill="#394ca4" d="M409.04 2603s184.44-22.41 137.9-51.71c-46.54-29.3-137.9 51.71-137.9 51.71z"/><path fill="#f2faff" d="M470.63 2562.08c5.43-1 9.42-4.2 14.05-6.95 4.37-2.6 9.11-4.71 14.11-5.77 7.08-1.49 14.19.32 21.3-.65 2.48-.34 5.4-1.19 6.33-3.65-18.42-1.14-39.72 6.88-59.1 17.33 1.1-.05 2.2-.11 3.31-.31z" opacity=".2"/><path fill="#394ca4" d="M1963.63 2503.23s28.14-204.27-27.89-184.11c-56.03 20.16-30.31 102.03 27.89 184.11z"/><path fill="#100959" d="M1967.33 2501.26s-114.58-201.49-193.62-132.21c-79.05 69.28 193.62 132.21 193.62 132.21z"/><path fill="#f2faff" d="M1778.1 2371.3c2.29 6.29 6.05 11.63 12.84 13.27 8.48 2.05 17.72-.44 26.25-.92 9.72-.55 19.05.9 27.87 5.13 8.52 4.09 15.81 10.28 23 16.29 7.22 6.03 14.57 12.6 23.01 16.86 8.01 4.05 17.51 5.78 26.31 7.16h.03c-39.56-48.6-95.5-97.88-140.68-62.52.35 1.6.81 3.18 1.37 4.73z" opacity=".5"/><path fill="#4094f2" d="M1806.1 2612.26h989.15l-14.19-49.44-33.37-117.12c-23.64-82.67-105.77-134.41-190.61-119.96l-42.82 7.43c-3.24.54-6.35.81-9.46.81-18.91 0-36.88-9.46-47.55-25.53-73.49-110.23-239.65-96.59-294.22 24.18l-7.3 16.21c-12.87 28.6-46.46 41.38-75.09 28.57l-42.71-19.12c-24.99-11.21-52.82-2.84-68.22 16.89-5.68 7.16-9.73 15.8-11.35 25.53l-6.35 37.01c-1.62 9.19-5.13 17.29-10.13 24.05-.95 1.22-1.89 2.43-2.84 3.51-8.64 10-20.4 16.62-33.23 18.92-3.24.67-6.75.94-10.13.94-10.72 0-21.58-2.94-31.44-9.52-22.24-14.85-52.06-11.14-70.96 7.76l-28.7 28.69c-36.94 36.97-10.76 100.19 41.52 100.19z"/><path fill="#f2faff" d="M1767.39 2533.31c5.79-8.62 9.28-18.65 15.51-26.97 12.88-17.2 36.46-20.66 56.52-17.29 13.49 2.26 26.22 7.1 40.11 5.86 10.84-.97 21.62-2.67 32.14-5.44 20.67-5.44 41.61-15.56 53.21-34.33 11.54-18.66 6.04-43.38 19.69-61.1 14.67-19.05 39.94-17.26 60.3-9.81 11.41 4.17 21.53 11.18 32.98 15.11 13.43 4.62 27.86 5.2 41.68 2.04 7.15-1.64 14.08-4.17 20.66-7.41 4.07-2.01 7.8-4.19 10.68-7.78 4.73-5.9 6.51-13.71 6.24-21.15-.17-4.53-1.17-9.05-2.9-13.21-13.81 26.46-45.97 37.93-73.56 25.58l-42.71-19.12c-24.99-11.21-52.82-2.84-68.22 16.89-5.68 7.16-9.73 15.81-11.35 25.53l-6.35 37.01c-1.62 9.18-5.13 17.29-10.13 24.05-.95 1.22-1.89 2.43-2.84 3.51-8.64 10-20.4 16.62-33.23 18.92-3.24.67-6.75.94-10.13.94-10.71 0-21.57-2.94-31.43-9.52-22.24-14.85-52.06-11.14-70.96 7.76l-28.7 28.69c-10.43 10.43-15.83 22.95-17.04 35.55 8.26-1.81 14.95-7.04 19.83-14.31z" opacity=".2"/><path fill="#f2faff" d="M1893.4 2612.26h901.85l-14.19-49.44c-44.58-39.99-106.18-59.57-168.86-48.77l-33.37 5.67-17.97 2.97c-3.91.68-7.83.94-11.62.94-8.38 0-16.62-1.48-24.32-4.46-12.97-5-24.31-13.78-32.42-25.94-11.35-17.15-24.72-31.75-39.31-43.77a160.39 160.39 0 0 0-17.56-13.1c-32.83-21.75-70.52-32.56-108.34-32.96-22.15-.41-44.17 2.84-65.25 9.72-51.2 16.21-96.59 53.09-121.85 109.15l-8.78 19.18c-15.53 34.45-55.92 49.71-90.24 34.31l-25.94-11.62-24.99-11.21c-11.35-5.13-23.24-6.75-34.58-5.67-29.45 2.83-55.39 24.72-60.79 56.46l-1.47 8.54z" opacity=".25"/><path fill="#100959" d="M2015.7 2429.94c0 9.71 7.87 17.58 17.58 17.58 9.71 0 17.58-7.87 17.58-17.58 0-9.71-7.87-17.59-17.58-17.59-9.71.01-17.58 7.88-17.58 17.59z"/><path fill="#202234" d="M2019.77 2434.1c0 9.71 7.87 17.58 17.58 17.58 9.71 0 17.58-7.87 17.58-17.58 0-9.71-7.87-17.59-17.58-17.59-9.7.01-17.58 7.88-17.58 17.59z" opacity=".15"/><circle cx="2288.26" cy="2564.24" r="17.58" fill="#394ca4"/><path fill="#202234" d="M2203.21 2340.74c0 18.71 15.17 33.89 33.88 33.89 18.72 0 33.89-15.17 33.89-33.89s-15.17-33.89-33.89-33.89c-18.71 0-33.88 15.17-33.88 33.89z" opacity=".15"/><path fill="#394ca4" d="M2207.46 2328.69c0 18.71 15.17 33.88 33.88 33.88 18.72 0 33.89-15.17 33.89-33.88 0-18.72-15.17-33.89-33.89-33.89-18.71.01-33.88 15.18-33.88 33.89z"/><path fill="#100959" d="M2016.34 2603s79.29-99.98 43.09-106.87c-36.19-6.89-48.26 44.82-43.09 106.87z"/><path fill="#f2faff" d="M2018.89 2541.54c3.7-.88 6-3.46 7.59-6.8 3.18-6.71 2.95-14.56 6.61-21.07 1.84-3.27 4.71-5.78 8.11-7.35 3.36-1.54 7.1-2.32 10.29-4.21 3.09-1.83 3.65-4.05 1.27-6.59-18.94.26-30.12 18.67-34.86 46.2.32-.06.66-.1.99-.18z" opacity=".5"/><path fill="#394ca4" d="M2016.34 2603s-49.99-134.45-105.15-99.98c-55.16 34.48 105.15 99.98 105.15 99.98z"/><path fill="#f2faff" d="M1913.44 2501.83c.57 1.29 1.86 2.47 2.86 2.87 2.2.9 5.04.55 7.37.5 5.12-.1 10.4-.46 15.45.56 5.44 1.09 10.64 4.24 15.12 7.41 8.23 5.81 13.55 14.87 22 20.29 1.37.88 3.31 1.85 5.51 2.68-18.55-26.74-42.8-48.19-68.31-34.31z" opacity=".2"/><path fill="#394ca4" d="M2016.34 2603s184.44-22.41 137.9-51.71c-46.54-29.3-137.9 51.71-137.9 51.71z"/><path fill="#f2faff" d="M2077.93 2562.08c5.43-1 9.43-4.2 14.05-6.95 4.37-2.6 9.11-4.71 14.11-5.77 7.08-1.49 14.19.32 21.3-.65 2.48-.34 5.4-1.19 6.33-3.65-18.42-1.14-39.72 6.88-59.1 17.33 1.11-.05 2.21-.11 3.31-.31z" opacity=".2"/><path fill="#394ca4" d="M3329.65 2445.76s-42.97-311.93 42.59-281.15c85.56 30.8 46.29 155.81-42.59 281.15z"/><path fill="#100959" d="M3324 2442.75s174.97-307.69 295.67-201.89c120.71 105.8-295.67 201.89-295.67 201.89z"/><path fill="#f2faff" d="M3612.96 2244.3c-3.5 9.61-9.23 17.76-19.6 20.27-12.95 3.14-27.06-.67-40.08-1.41-14.85-.84-29.09 1.37-42.55 7.84-13 6.25-24.14 15.69-35.13 24.88-11.02 9.21-22.25 19.24-35.14 25.75-12.23 6.18-26.74 8.82-40.18 10.93h-.04c60.41-74.22 145.83-149.46 214.83-95.47-.54 2.43-1.24 4.84-2.11 7.21z" opacity=".5"/><path fill="#4094f2" d="M3570.21 2612.26H2059.7l21.66-75.51 50.96-178.85c36.1-126.25 161.52-205.26 291.07-183.19l65.39 11.34c4.95.83 9.7 1.24 14.44 1.24 28.88 0 56.32-14.44 72.62-38.99 112.22-168.33 365.96-147.5 449.3 36.93l11.14 24.75c19.65 43.68 70.95 63.2 114.67 43.63l65.21-29.19c38.17-17.12 80.66-4.33 104.18 25.79 8.67 10.93 14.86 24.13 17.33 38.99l9.7 56.52c2.48 14.03 7.84 26.41 15.47 36.72 1.45 1.86 2.89 3.71 4.33 5.36a87.359 87.359 0 0 0 50.75 28.88c4.95 1.03 10.31 1.44 15.47 1.44 16.36 0 32.95-4.49 48-14.54 33.96-22.67 79.49-17.02 108.37 11.86l43.82 43.81c56.44 56.47 16.46 153.01-63.37 153.01z"/><path fill="#f2faff" d="M3629.33 2491.71c-8.84-13.16-14.18-28.48-23.69-41.19-19.66-26.26-55.67-31.55-86.31-26.41-20.61 3.46-40.04 10.84-61.26 8.95-16.55-1.48-33.01-4.09-49.09-8.31-31.56-8.3-63.54-23.77-81.25-52.42-17.62-28.5-9.22-66.25-30.06-93.3-22.4-29.09-60.99-26.36-92.08-14.99-17.43 6.37-32.88 17.07-50.37 23.08-20.51 7.05-42.55 7.94-63.66 3.11-10.92-2.5-21.5-6.37-31.54-11.32-6.22-3.07-11.91-6.4-16.3-11.88-7.23-9.01-9.94-20.93-9.52-32.29.25-6.91 1.78-13.83 4.42-20.17 21.09 40.4 70.2 57.92 112.33 39.07l65.21-29.19c38.16-17.12 80.66-4.33 104.18 25.79 8.67 10.93 14.86 24.14 17.33 38.99l9.7 56.52c2.48 14.03 7.84 26.41 15.47 36.72 1.45 1.86 2.89 3.71 4.33 5.36a87.412 87.412 0 0 0 50.75 28.88c4.95 1.03 10.31 1.44 15.47 1.44 16.36 0 32.95-4.49 48-14.54 33.96-22.67 79.49-17.02 108.37 11.85l43.82 43.82c15.93 15.93 24.17 35.05 26.01 54.29-12.59-2.79-22.81-10.77-30.26-21.86z" opacity=".2"/><path fill="#f2faff" d="M3436.9 2612.26H2059.7l21.66-75.51c68.08-61.06 162.14-90.97 257.86-74.47l50.95 8.66 27.44 4.54c5.98 1.03 11.96 1.45 17.74 1.45 12.79 0 25.37-2.27 37.13-6.81 19.8-7.63 37.13-21.05 49.51-39.61 17.33-26.19 37.75-48.47 60.03-66.84 8.66-7.42 17.53-14.02 26.82-20.01 50.13-33.21 107.68-49.71 165.45-50.33 33.83-.62 67.45 4.33 99.64 14.85 78.18 24.76 147.49 81.07 186.07 166.68l13.41 29.3c23.72 52.61 85.4 75.92 137.8 52.4l39.61-17.74 38.16-17.12c17.33-7.84 35.49-10.31 52.81-8.66 44.98 4.33 84.58 37.75 92.84 86.23l2.27 12.99z" opacity=".25"/><path fill="#100959" d="M3250.14 2333.85c0 14.83-12.02 26.85-26.85 26.85-14.83 0-26.85-12.02-26.85-26.85 0-14.83 12.02-26.85 26.85-26.85 14.83 0 26.85 12.02 26.85 26.85z"/><path fill="#202234" d="M3243.92 2340.2c0 14.83-12.02 26.85-26.85 26.85-14.83 0-26.85-12.02-26.85-26.85 0-14.83 12.02-26.85 26.85-26.85 14.83 0 26.85 12.02 26.85 26.85z" opacity=".15"/><path fill="#394ca4" d="M2860.77 2538.93c0 14.83-12.02 26.85-26.85 26.85-14.83 0-26.85-12.02-26.85-26.85 0-14.83 12.02-26.85 26.85-26.85 14.83 0 26.85 12.02 26.85 26.85z"/><path fill="#202234" d="M2963.8 2197.63c0 28.58-23.17 51.75-51.74 51.75-28.58 0-51.75-23.17-51.75-51.75s23.17-51.75 51.75-51.75c28.57 0 51.74 23.17 51.74 51.75z" opacity=".15"/><path fill="#394ca4" d="M2957.31 2179.24c0 28.58-23.17 51.74-51.74 51.74s-51.75-23.17-51.75-51.74c0-28.58 23.17-51.75 51.75-51.75s51.74 23.17 51.74 51.75z"/><path fill="#100959" d="M3249.16 2598.13s-121.09-152.67-65.81-163.2c55.28-10.54 73.7 68.44 65.81 163.2z"/><path fill="#f2faff" d="M3245.27 2504.27c-5.64-1.34-9.17-5.29-11.59-10.39-4.86-10.24-4.51-22.24-10.09-32.18-2.81-5-7.19-8.83-12.38-11.22-5.12-2.36-10.84-3.54-15.71-6.42-4.71-2.79-5.57-6.18-1.93-10.07 28.92.4 45.99 28.51 53.23 70.55-.51-.09-1.03-.15-1.53-.27z" opacity=".5"/><path fill="#394ca4" d="M3249.16 2598.13s76.33-205.32 160.57-152.67c84.23 52.64-160.57 152.67-160.57 152.67z"/><path fill="#f2faff" d="M3406.29 2443.62c-.88 1.97-2.85 3.77-4.36 4.39-3.36 1.37-7.7.84-11.26.77-7.82-.15-15.88-.7-23.6.85-8.31 1.67-16.25 6.48-23.09 11.31-12.57 8.87-20.69 22.7-33.6 30.98-2.08 1.34-5.06 2.82-8.41 4.09 28.34-40.82 65.37-73.57 104.32-52.39z" opacity=".2"/><path fill="#394ca4" d="M3249.16 2598.13s-281.66-34.22-210.58-78.97c71.06-44.75 210.58 78.97 210.58 78.97z"/><path fill="#f2faff" d="M3155.1 2535.63c-8.3-1.52-14.39-6.41-21.46-10.61-6.68-3.98-13.92-7.2-21.55-8.81-10.81-2.27-21.67.49-32.52-1-3.79-.52-8.24-1.82-9.67-5.57 28.13-1.74 60.66 10.51 90.25 26.46-1.68-.07-3.36-.16-5.05-.47z" opacity=".2"/><path fill="#4094f2" d="M2160.47 2041.8c0 4.85 3.93 8.78 8.78 8.78s8.77-3.93 8.77-8.78-3.93-8.78-8.77-8.78c-4.85.01-8.78 3.93-8.78 8.78zM2109.55 2041.8c0 4.85 3.93 8.78 8.78 8.78 4.84 0 8.78-3.93 8.78-8.78s-3.93-8.78-8.78-8.78c-4.85.01-8.78 3.93-8.78 8.78zM2058.64 2041.8c0 4.85 3.93 8.78 8.78 8.78 4.84 0 8.78-3.93 8.78-8.78s-3.93-8.78-8.78-8.78c-4.86.01-8.78 3.93-8.78 8.78zM2007.72 2041.8c0 4.85 3.93 8.78 8.78 8.78s8.78-3.93 8.78-8.78-3.93-8.78-8.78-8.78c-4.85.01-8.78 3.93-8.78 8.78zM1956.8 2041.8c0 4.85 3.93 8.78 8.78 8.78s8.78-3.93 8.78-8.78-3.93-8.78-8.78-8.78c-4.85.01-8.78 3.93-8.78 8.78zM2144.46 2085.14c0 4.85 3.93 8.78 8.77 8.78 4.85 0 8.78-3.93 8.78-8.78s-3.93-8.78-8.78-8.78c-4.84 0-8.77 3.93-8.77 8.78zM2093.54 2085.14c0 4.85 3.93 8.78 8.78 8.78s8.78-3.93 8.78-8.78-3.93-8.78-8.78-8.78-8.78 3.93-8.78 8.78zM2042.62 2085.14c0 4.85 3.93 8.78 8.78 8.78s8.78-3.93 8.78-8.78-3.93-8.78-8.78-8.78-8.78 3.93-8.78 8.78zM1991.7 2085.14c0 4.85 3.93 8.78 8.78 8.78s8.77-3.93 8.77-8.78-3.93-8.78-8.77-8.78-8.78 3.93-8.78 8.78zM1940.79 2085.14c0 4.85 3.93 8.78 8.78 8.78s8.78-3.93 8.78-8.78-3.93-8.78-8.78-8.78-8.78 3.93-8.78 8.78zM1889.87 2085.14c0 4.85 3.93 8.78 8.78 8.78s8.78-3.93 8.78-8.78-3.93-8.78-8.78-8.78-8.78 3.93-8.78 8.78zM2160.47 1949.94c0 4.85 3.93 8.78 8.78 8.78s8.77-3.93 8.77-8.78-3.93-8.78-8.77-8.78c-4.85 0-8.78 3.93-8.78 8.78zM2109.55 1949.94c0 4.85 3.93 8.78 8.78 8.78 4.84 0 8.78-3.93 8.78-8.78s-3.93-8.78-8.78-8.78-8.78 3.93-8.78 8.78zM2058.64 1949.94c0 4.85 3.93 8.78 8.78 8.78 4.84 0 8.78-3.93 8.78-8.78s-3.93-8.78-8.78-8.78c-4.86 0-8.78 3.93-8.78 8.78zM2007.72 1949.94c0 4.85 3.93 8.78 8.78 8.78s8.78-3.93 8.78-8.78-3.93-8.78-8.78-8.78-8.78 3.93-8.78 8.78zM1956.8 1949.94c0 4.85 3.93 8.78 8.78 8.78s8.78-3.93 8.78-8.78-3.93-8.78-8.78-8.78-8.78 3.93-8.78 8.78zM2144.46 1993.28c0 4.85 3.93 8.78 8.77 8.78 4.85 0 8.78-3.93 8.78-8.78s-3.93-8.77-8.78-8.77c-4.84-.01-8.77 3.92-8.77 8.77zM2093.54 1993.28c0 4.85 3.93 8.78 8.78 8.78s8.78-3.93 8.78-8.78-3.93-8.77-8.78-8.77c-4.85-.01-8.78 3.92-8.78 8.77zM2042.62 1993.28c0 4.85 3.93 8.78 8.78 8.78s8.78-3.93 8.78-8.78-3.93-8.77-8.78-8.77c-4.85-.01-8.78 3.92-8.78 8.77zM1991.7 1993.28c0 4.85 3.93 8.78 8.78 8.78s8.77-3.93 8.77-8.78-3.93-8.77-8.77-8.77c-4.84-.01-8.78 3.92-8.78 8.77zM1940.79 1993.28c0 4.85 3.93 8.78 8.78 8.78s8.78-3.93 8.78-8.78-3.93-8.77-8.78-8.77c-4.85-.01-8.78 3.92-8.78 8.77zM1889.87 1993.28c0 4.85 3.93 8.78 8.78 8.78s8.78-3.93 8.78-8.78-3.93-8.77-8.78-8.77c-4.85-.01-8.78 3.92-8.78 8.77z" opacity=".25"/><path fill="#383b4b" d="M1259.06 2707.11s2.73 2.1 1.37 5.91c-1.37 3.82-179.87 3.51-181.23-2.41-1.37-5.91 3.81-8.36 3.81-8.36s163.25-3.58 176.05 4.86z"/><path fill="#d7a28e" d="m1096.54 2597.56-11.12 92.38 47.82 9.25 17.41-91.17z"/><path fill="#202234" d="M1076.73 2653.06c-4.93 27.48-5.53 47.95 3.96 53.15 9.39 5.56 179.94 4.12 179.94 4.12s19.59-23.9-22.24-30.12c-32.32-5.13-71.05-23.46-87.03-31.79l.07-.36c-3.89-10.86.8-21.55-4.43-17.69-3.08 2.4-4.98 8.39-6.24 14.88-9.01 9.86-39.28 11.49-47.11 3.62-.01-.02-11.62-23.22-16.92 4.19z"/><path fill="#383b4b" d="M1196.68 2684.86c27.91 14.38 41.7-4.66 41.7-4.66-32.32-5.13-71.05-23.46-87.03-31.79l.07-.36c-7.22 10.2 18.81 22.72 45.26 36.81zM1588.82 2707.11s2.73 2.1 1.37 5.91c-1.37 3.82-179.87 3.51-181.23-2.41-1.37-5.91 3.81-8.36 3.81-8.36s163.25-3.58 176.05 4.86z"/><path fill="#d7a28e" d="m1414.59 2596.69 9.7 92.38 47.82 9.25-3.41-91.17z"/><path fill="#202234" d="M1406.49 2653.06c-4.93 27.48-5.53 47.95 3.96 53.15 9.39 5.56 179.94 4.12 179.94 4.12s19.59-23.9-22.24-30.12c-32.32-5.13-71.05-23.46-87.03-31.79l.07-.36c-3.89-10.86.8-21.55-4.43-17.69-3.08 2.4-4.98 8.39-6.24 14.88-9.01 9.86-39.28 11.49-47.11 3.62-.01-.02-11.62-23.22-16.92 4.19z"/><path fill="#383b4b" d="M1526.44 2684.86c27.92 14.38 41.7-4.66 41.7-4.66-32.32-5.13-71.05-23.46-87.03-31.79l.07-.36c-7.22 10.2 18.81 22.72 45.26 36.81zM2306.99 2720.99s-2.73 2.1-1.37 5.91c1.37 3.82 179.87 3.51 181.23-2.4 1.37-5.91-3.81-8.36-3.81-8.36s-163.24-3.59-176.05 4.85z"/><path fill="#fb8a77" d="m2481.22 2610.58-9.7 92.38-47.82 9.24 3.42-91.16z"/><path fill="#202234" d="M2489.33 2666.95c4.93 27.48 5.53 47.95-3.96 53.15-9.39 5.56-179.94 4.11-179.94 4.11s-19.59-23.9 22.24-30.12c32.32-5.12 71.05-23.46 87.03-31.79l-.07-.36c3.89-10.86-.8-21.55 4.43-17.69 3.08 2.4 4.98 8.39 6.24 14.88 9.01 9.86 39.28 11.49 47.11 3.62.01-.01 11.62-23.21 16.92 4.2z"/><path fill="#383b4b" d="M2369.37 2698.75c-27.92 14.38-41.7-4.66-41.7-4.66 32.32-5.12 71.05-23.46 87.03-31.79l-.07-.36c7.22 10.2-18.8 22.71-45.26 36.81zM3307.98 2038.94s2.91 1.84 6.02-.76c3.11-2.6-58.96-169.96-64.98-169.2-6.02.76-6.53 6.47-6.53 6.47s53.15 154.4 65.49 163.49z"/><path fill="#fb8a77" d="m3144.09 1913.69 90.03-22.87 25.23 41.67-86.71 28.35z"/><path fill="#202234" d="M3194.18 1886.58c24.08-14.14 43.08-21.78 51.23-14.68 8.47 6.89 66.14 167.39 66.14 167.39s-15.65 26.65-35.96-10.44c-15.99-28.54-46.6-58.54-59.95-70.65l-.32.19c-11.53.11-19.94 8.22-18.14 1.96 1.19-3.72 6.15-7.58 11.8-11 6.13-11.87-2.81-40.82-12.91-45.45.01.01-25.78-2.86-1.89-17.32z"/><path fill="#383b4b" d="M3265.53 1988.12c23.15 21.21 10.06 40.74 10.06 40.74-15.99-28.54-46.6-58.54-59.95-70.65l-.32.19c7.08-10.31 27.83 9.78 50.21 29.72z"/><path fill="#231f20" d="M1973.99 204.75c-1.02-24.41 1.66-48.95-5.84-72.64-6.96-21.98-19.7-41.44-32.34-60.49-4.01-6.05-13.83-.38-9.78 5.72 12.07 18.2 24.54 36.79 31.2 57.79 7.19 22.7 4.46 46.23 5.44 69.63.31 7.25 11.63 7.29 11.32-.01zM2002.26 188.45a218.755 218.755 0 0 1 43.46-75.08c4.82-5.44-3.17-13.48-8.01-8.01a232.81 232.81 0 0 0-46.37 80.08c-2.33 6.92 8.6 9.89 10.92 3.01zM1937.89 166.29c-9.62-25.91-30.13-46.48-56.01-56.18-2.87-1.08-6.21 1.19-6.97 3.96-.87 3.17 1.08 5.89 3.96 6.97 21.88 8.2 39.97 26.36 48.1 48.26 1.07 2.87 3.84 4.82 6.97 3.96 2.75-.76 5.02-4.09 3.95-6.97z"/><path fill="#fda7a8" d="m1522.22 824.71 145.25-49.93L1815.7 370.1l25.45 8.48s2.64 400.93-69.66 484.8c-42.6 49.41-247.79 81.75-247.79 81.75l-1.48-120.42z"/><path fill="#fda7a8" d="M1857.74 343.2c-1.12 7.18-2.4 13.63-3.61 17.38-.13.43-.26.81-.37 1.12-.99 2.71-2.26 5.18-3.62 7.4-1.16 1.9-2.36 3.58-3.51 5.04-2.98 3.8-5.58 5.97-5.58 5.97l-6.26 59.36c-11.52 1-26.82-3.42-29.38-4.31 0 0 10.67-54.01 5.3-62.78a.748.748 0 0 0-.15-.24c-.1-.11-.23-.2-.36-.3-1.76-1.57-3.26-4.91-4.24-8.82-.72-2.87-1.18-6.05-1.29-9.06-.01-.36-.02-.76-.01-1.23.05-8.54 3.24-31.12 7.38-32.33 4.75-1.39 4.53 7.58 4.07 12.19l.06-.39c1.72-11.74 7.08-46.74 12.92-46.79 3.83-.05 3.08 14.9 1.93 26.43 1.92-14.04 5.4-34.05 9.36-32.01 3.04 1.57 2.01 22.19 1.33 33.7 1.19-7.84 4.11-23.28 6.81-22.94 5.82.72 4.27 16.94 2.56 27.78 1.45-6.38 3.81-13.54 6.97-13.54 3.87.02 2.34 21.33-.31 38.37z"/><path fill="#231f20" d="M1842.82 376.3c-.75.89-1.56 1.74-2.55 2.45-3.32 2.38-7.57 3.36-11.62 3.35-4.09-.02-8.39-1.01-11.49-3.81-1.29-1.15-2.21-2.57-3.12-4.03 6.25 2.76 13.67 1.28 13.67 1.28 5.48 1.71 10.47 1.9 14.63.6.26.15.43.19.48.16z" opacity=".1"/><path fill="#fff" d="M1854.13 360.58c-.13.43-.26.81-.37 1.12-.99 2.71-2.26 5.18-3.62 7.4-1.16 1.9-2.36 3.58-3.51 5.04-1.29.89-2.75 1.56-4.29 2.02-4.17 1.3-9.15 1.1-14.63-.6 0 0-7.42 1.47-13.66-1.29-1.23-.52-2.42-1.21-3.48-2.12-.1-.11-.23-.2-.36-.3-1.76-1.57-3.26-4.91-4.24-8.82-.72-2.87-1.18-6.05-1.29-9.06-.01-.36-.02-.76-.01-1.23.05-8.54 3.24-31.12 7.38-32.33 4.75-1.39 4.53 7.58 4.07 12.19l.06-.39c-.23 3.14-.12 5.12 1.34 3.54 3.41-3.71 10.54-4.91 20.23-2.79 10.27 2.23 15.66 8.16 17.99 10.23 1.42 2.48-.31 12.92-1.61 17.39z" opacity=".2"/><path fill="#ea969b" d="M1848.46 336.71c.04-.06.1-.11.11-.18l2.49-17.75-3.44 17.46c-.43-.23-.84-.49-1.27-.71-1.99-1-4.06-1.87-6.23-2.52 0-.01.02-.02.02-.03l1.39-17.87-2.36 17.64c-.18-.05-.35-.11-.53-.15-2.71-.55-5.41-.97-8.16-1.14-.52-.03-1.04-.05-1.55-.07 0-.02.02-.03.02-.05l1.39-17.87-2.38 17.77v.03c0 .04.03.06.03.1-1.91-.04-3.83.04-5.7.36 2.73-.06 5.43.16 8.12.48 2.68.34 5.38.74 8 1.35 2.61.56 5.12 1.59 7.58 2.66 2.47 1.09 4.88 2.31 7.29 3.57-1.52-1.14-3.15-2.14-4.82-3.08z"/><path fill="#202234" d="m1109.58 1298.57 232.21 678.48 65.73 653.86 65.95-10.41 56.63-687.01-79.51-641.96z"/><path fill="#726658" d="M1422.61 2545.23c3.69-58.73 35.93-574.17 29.58-585.81-4.86-8.92-58.34-233.19-85.93-350.54l-3.58.84c3.27 13.87 79.98 339.86 86.31 351.44 4.7 12.59-20.08 425.71-30.04 583.83l3.66.24z" opacity=".5"/><path fill="#232b57" d="M1174.4 1328.42s-50.22 58.58-46.03 200.86c4.19 142.28-.25 364.07-.25 364.07l-42.27 732.35h68.84l227.94-818.03s140.91-483.11 94.88-499.84c-46.02-16.74-303.11 20.59-303.11 20.59z"/><path fill="#a7ccea" d="M1312.5 759.3s171.57 4.19 217.6 46.03-29.29 196.68-29.29 196.68-12.56 263.63-31.39 351.51h-315.94v-334.77l-66.96-230.16c.01 0 129.68-37.28 225.98-29.29z"/><path fill="#33143f" d="M1244.95 799.88c0 13.29 36.79 34.71 75.21 34.71s55.87-24.89 55.87-38.18-37.12-41.66-75.54-41.66-55.54 31.84-55.54 45.13z" opacity=".2"/><path fill="#a7ccea" d="M1500.81 1002.01s183.35-88.96 197.48-99.95c14.12-10.98-42.39-127.36-56.71-137.3-14.32-9.94-76.51 19.58-159.64 17.26 0 .01 42.41 158.27 18.87 219.99z"/><path fill="#726658" d="m1146.51 2529.71 96.65-595.93.03-440.82c53.79-17.71 78.11-97.82 79.12-101.25l-3.52-1.04c-.24.83-25.16 82.94-77.98 99.2l-1.29.4v443.22l-96.62 595.64 3.61.58z"/><path fill="#fff" d="M1257.71 902.26c13.52-.36 26.6-.23 39.91.47 14.7.77 24.67.51 39.59-.05 25.74-.96 50.76-.69 76.32.44 33.24 1.47 19.16 13.42-13.99 11.96-26.65-1.18-49.14.05-75.46.71-22.93.58-43.33-1.74-66.37-1.13-33.6.89-33.32-11.52 0-12.4zM1262.42 928.93c13.52-.36 26.6-.23 39.91.47 14.7.77 24.67.51 39.59-.05 25.74-.96 50.76-.69 76.32.44 33.24 1.47 19.16 13.42-13.99 11.95-26.65-1.18-49.14.05-75.47.71-22.93.58-43.33-1.74-66.37-1.13-33.59.9-33.32-11.5.01-12.39z" opacity=".7"/><path fill="#202234" d="M1299.36 695.87c-26.54 26.53-13.96 46.78-47.48 25.84-33.52-20.95-55.86-23.74-55.86-85.88 0-62.15 24.44-24.44 29.32-78.9 4.89-54.46 29.33-28.63 55.16-55.86s67.03 6.28 83.79-2.1c16.76-8.38 41.2 25.83 23.74 51.67-17.46 25.83-75.41 32.12-102.64 58.65-27.23 26.54 13.97 86.58 13.97 86.58z"/><path fill="#fda7a8" d="m1264.18 776.51 7.29-80.29s-1.67-10.61-10.54-11.24c-13.75-.97-20.97-24.32-13.6-35.22 10.39-15.35 23-1.45 23-1.45s31.7-45.95 55.19-54.89c31.87-12.13 62.07-.92 62.07-.92s25.42 104.32 7.59 130.2c-17.83 25.87-56.01 14.83-56.01 14.83l12.83 52.75s-13.65 31.99-45.3 26.98c-31.65-5.02-42.52-40.75-42.52-40.75z"/><path fill="#0f1019" d="M1359.16 739.79c-5.67-2.85-11.51-5.37-17.09-7.56-12.84-5.06-25.98-10.68-39.37-14.7 4.81 17.96 16.6 33.8 21.87 51.71 5.47 18.59 7 14.39-7.41 28.62-6.67 6.59-14.94 11.22-23.81 14.79 4.01 2.07 8.33 3.81 13.35 4.61 31.65 5.02 45.3-26.98 45.3-26.98l-12.83-52.75s8.87 2.48 19.99 2.26z" opacity=".1"/><path fill="#ef9a9e" d="M1259.96 651.03s-9.25-.22-10.05 4.14c-.81 4.36 2.99 20.71 2.99 20.71s.56-15.35 2.01-18.36c1.45-3.01 6.29-4.97 5.05-6.49z"/><path fill="#33133f" d="M1309.89 682.09c-.09 4.22 5.01 7.77 11.4 7.91 6.39.15 11.65-3.16 11.74-7.39.1-4.22-5.01-7.77-11.4-7.91-6.38-.15-11.64 3.16-11.74 7.39z" opacity=".05"/><path fill="#33133f" d="M1380.62 672.19c-.1 4.23 5.01 7.77 11.4 7.91 6.39.14 11.65-3.16 11.75-7.39.09-4.22-5.01-7.77-11.4-7.91-6.39-.14-11.65 3.17-11.75 7.39z" opacity=".05"/><path fill="#202234" d="M1363.7 683.55c2.82-.54 4.92-1.82 5.08-1.92 1.32-.82 1.73-2.56.91-3.88-.81-1.31-2.55-1.71-3.87-.92-.04.03-4.2 2.5-7.02.59a2.832 2.832 0 0 0-3.92.73c-.88 1.28-.55 3.04.74 3.92 2.71 1.85 5.66 1.94 8.08 1.48zM1377.54 629.67c.28-.05.56-.15.82-.3.13-.06 13.38-7.3 24.03-8.44 1.54-.21 2.66-1.58 2.48-3.12a2.822 2.822 0 0 0-3.12-2.49c-11.74 1.36-25.52 8.79-26.1 9.11a2.803 2.803 0 0 0-1.12 3.82 2.816 2.816 0 0 0 3.01 1.42zM1386.66 644.91c.46 3.12 3.12 5.31 5.96 4.9 2.84-.41 4.77-3.28 4.32-6.39-.45-3.12-3.12-5.31-5.96-4.9-2.84.41-4.77 3.27-4.32 6.39zM1338.81 631.71c1.08-.2 1.99-1.03 2.23-2.18a2.82 2.82 0 0 0-2.16-3.35c-.65-.13-15.96-3.37-27.61-1.29-1.41.05-2.55 1.74-2.28 3.27a2.823 2.823 0 0 0 3.27 2.28c10.54-1.89 25.29 1.22 25.43 1.25.38.09.76.09 1.12.02zM1334.16 648.95c.45 3.12-1.48 5.98-4.32 6.39-2.84.41-5.51-1.78-5.96-4.9-.45-3.11 1.48-5.98 4.32-6.39 2.84-.41 5.51 1.78 5.96 4.9zM1374.81 703.92c.45 3.11-1.48 5.98-4.32 6.39-2.84.41-5.51-1.78-5.96-4.89-.45-3.12 1.48-5.98 4.32-6.39 2.83-.42 5.5 1.77 5.96 4.89z"/><path fill="#202234" d="M1289.93 631.29c-9.44-5.15-13.27 32.82-13.27 32.82s-4.54-12.22-6.98-17.11c-2.44-4.89-5.24.7-12.92-16.76s-24.79-20.25 13.27-53.77c38.05-33.52 18.51-41.2 66.33-35.96 47.83 5.24 70.52-4.54 73.66 16.41 3.14 20.95-13.62 46.09-30.37 42.24-16.76-3.84 2.79-4.19-35.61 6.29s-38.75 34.21-54.11 25.84z"/><path fill="#fb8a77" d="m2293.16 896.52-132.24-72.2-60.33-403.84-26.1 18.62s-46.77 396.23 4.11 494.58c29.98 57.94 182.41 115.04 182.41 115.04l32.15-152.2zM2742.71 1034.67l163.74 146.71 263.89 164.92-10.67-38.14-162.15-169.95-228.44-241.69z"/><path fill="#202234" d="M2617.07 1456.87s79.23 70.94 50.65 199.11c-28.58 128.17-153.96 312.07-153.96 312.07l-31.35 672.69-61.32-1.16s-79.66-562.43-74.47-731.23c4.04-131.27 57.27-508.21 101.89-515.35 44.62-7.14 168.56 63.87 168.56 63.87z"/><path fill="#232b57" d="M2715.43 1402.93s14.6-13.04 71.01 105.54c31.85 66.94 33.96 212.58 33.96 212.58l2.07 211.76 346.66-32.58 23.43 63.35s-373.69 196.61-475.31 154.56c-175.67-72.69-239.18-651.18-203.77-679.26 35.39-28.07 201.95-35.95 201.95-35.95z"/><path fill="#4094f2" d="M2423.99 885.98s-113.79 35.53-186.68-25.83l-41.51 163.21 142.67 84.78c0-.01 110.37-166.72 85.52-222.16z"/><path fill="#33143f" d="m2329.63 1101.36-33.23-18.23 83.51-137.78c0 .01-22.19 137.75-50.28 156.01z" opacity=".2"/><path fill="#4094f2" d="M2415.06 1466.51s29.96-218.35-5.21-257.28c-35.25-38.93-103.63-46.27-75.72-123.26 27.91-76.91 25.08-126.18 45.77-163.14 32.64-58.28 155.51-59.74 155.51-59.74s154.42-45.5 167.14 11.35c4.95 21.85 5.63 94.24 7.34 179.6 1.19 62.06 2.99 130.95 7.34 192.23 5.21 73.67 14.09 136.32 30.22 163.04 36.54 60.78-332.39 57.2-332.39 57.2z"/><path fill="#4094f2" d="M2678.31 850.76s135.3 35.5 181.54 135.97c0 0-17.25 100.63-58.6 114.63l-99.88-51.81-23.06-198.79z"/><path fill="#33143f" d="M2717.24 1246.28c-7.43-16.56-16.39-33.72-26.63-48.49-31.33-45.24-99.79-34.32-106.1-33.2 98.76-24.67 103.46-77.42 103.46-77.42 5.89-12.12 14.34-23.73 21.94-33.12 1.18 62.05 2.98 130.94 7.33 192.23zM2568.6 854.92l14.39-4.16s30.3 69.8-51.03 79.37c-81.33 9.57-97.28-16.75-97.28-16.75s-5.32-21.94 15.31-31.95c20.62-10 118.61-26.51 118.61-26.51z" opacity=".2"/><path fill="#ed7666" d="M3203.94 1371.92s16.41-30.36-1.65-48.59-27.66-4.58-27.66-4.58 20.65 29.42 20.18 37.92c-.45 8.5.77 19.29 9.13 15.25z"/><path fill="#fb8a77" d="M3211.73 1378.88s16.41-30.36-1.65-48.59c-18.06-18.22-27.66-4.58-27.66-4.58s20.65 29.42 20.18 37.92.77 19.29 9.13 15.25z"/><path fill="#ed7666" d="M3221.45 1382.04s16.41-30.36-1.65-48.59-27.66-4.58-27.66-4.58 20.65 29.42 20.18 37.92.77 19.29 9.13 15.25z"/><path fill="#fb8a77" d="M3105.86 1307.3s11.13-19.74 20.01-24.52c0 0 28.27 24.86 39.83 28.03 11.56 3.17 33.25-4.91 54.21 8.38 11.17 7.07 22.74 15.55 25.79 23.94 3.15 8.68 2.81 32.59-2.26 35.09s-8.06-12.84-10.58-21.79-9.97-16.39-19.16-19c-9.19-2.61-17.09 7.83-17.09 7.83s22.1 11.69 21.09 17.05c-1.01 5.35-12.85-1.33-25.77-4.91s-35.75-6.41-39.23-17.13c-3.48-10.73-46.84-32.97-46.84-32.97z"/><path fill="#fff" d="M3209.22 1361.8c-.09-.07.11-4.33 2.33-3.97 2.22.37 5.84 4.25 4.38 4.69s-4.76.88-6.71-.72zM3242.68 1377.98c-.2-.02.66-5.25 1.71-6.45 1.05-1.19 1.96-.78 1.96-.78s-1.11 7.51-3.67 7.23z" opacity=".2"/><path fill="#fb8a77" d="M2069.17 421.95c8.59 16.43-4.48 61.98-2.99 65.71 1.49 3.74 27.99 2.99 33.59 0 0 0 1.87-69.45 0-96.71-1.87-27.27-11.58-35.48-14.94-52.29-3.33-16.81-14.22-66-19.77-66.11-3.79-.06-3.76 13.85-2.7 31.61v.03c1.61 26.46 5.52 61.37 2.61 71-1.64 5.4-2.67 10.63-2.99 15.8-.63 10.12 1.5 20.07 7.19 30.96z"/><path fill="#ea7b6c" d="M2061.99 390.97c.98-1.58 1.9-3.19 2.79-4.8 4.14-7.58 7.56-15.69 9.34-24.16 1.87-8.71 1.78-17.7-.06-26.38-1.9-8.91-5.49-17.21-9.11-25.51-.86-1.98-1.72-3.94-2.59-5.95 1.61 26.46 5.52 61.37 2.61 71-1.63 5.4-2.67 10.63-2.98 15.8z"/><path fill="#fb8a77" d="M2077.49 390.94s3.73-16.81-2.05-28.76c-5.79-11.95-5.89-27.98-9.71-31.19-3.34-2.8-10.06-2.47-10.08 8.96-.03 15.32 6.72 19.79 2.99 29.69-3.73 9.9-4.35 21.04 1.91 35.38 6.07 13.94 12.83-.64 16.94-14.08z"/><path fill="#ea7b6c" d="M2074.5 360.08c.78 3.08 1.55 6.14 2.25 9.2.32 1.53.66 3.06.88 4.59.24 1.55.38 3.02.18 4.51-.33 3.02-1.27 6.06-1.87 9.18-.64 3.11-.98 6.38-.47 9.53.11-3.18.84-6.22 1.66-9.24.83-3.02 1.85-6.03 2.24-9.31.34-3.39-.59-6.53-1.44-9.58-.92-3.05-2.08-6.01-3.43-8.88z"/><path fill="#fff" d="M2065.89 273.75s.34 9.81 1.45 9.9c1.11.09 2.05-.05 2.05-1.54-.01-1.48-2.22-8.87-3.5-8.36zM2068.61 341.83s-2.39 1.7-4.19.42c-1.79-1.28-1.39-11.09-.04-11.17 1.35-.08 4.23 10.75 4.23 10.75z" opacity=".2"/><path fill="#6ea4fe" d="m2078.61 933.67 103.35 422.8c15.46 63.28-23.23 127.14-86.51 142.6l-921.9 211.54-178.8 212.51-20.52-163.79-9.03 2.21c-63.37 15.49-127.16-23.32-142.63-86.6l-103.35-422.8c-15.47-63.28 23.23-127.14 86.6-142.63l1130.25-262.47c63.28-15.45 127.07 23.35 142.54 86.63z"/><circle cx="2022.09" cy="1303.51" r="84.28" fill="#fff" opacity=".6"/><path fill="#5f98ed" d="m2078.12 1305.41-35.67 9.26 9.04 34.82-32.5 8.44-9.04-34.82-35.88 9.32-8-30.81 35.88-9.32-9.04-34.82 32.5-8.44 9.04 34.82 35.67-9.26 8 30.81z"/><path fill="#fff" d="m1552.18 1118.55-625.97 153.46c-10.5 2.57-15.69 18.23-11.59 34.96 4.1 16.74 15.94 28.21 26.45 25.64l625.97-153.46c10.5-2.57 15.69-18.23 11.58-34.96-4.1-16.73-15.94-28.21-26.44-25.64zM1585.48 1254.38l-625.97 153.46c-10.5 2.58-15.69 18.23-11.59 34.96s15.94 28.21 26.44 25.64l625.97-153.46c10.5-2.57 15.69-18.23 11.59-34.96s-15.94-28.21-26.44-25.64zM1618.78 1390.21l-625.97 153.46c-10.5 2.57-15.69 18.23-11.59 34.96s15.94 28.21 26.44 25.64l625.97-153.46c10.5-2.58 15.69-18.23 11.58-34.96-4.09-16.74-15.93-28.21-26.43-25.64z" opacity=".7"/><path fill="#5f98ed" d="M2013.82 1206.62c-5.37.46-10.77 1.38-16.16 2.78-18.06 4.69-33.61 14.15-45.64 26.7-18.05 18.78-28.2 44.47-27.1 71.32a99.16 99.16 0 0 0 3.06 20.54c3.51 13.51 9.69 25.62 17.84 35.9l-153.83 38.72c-16.02 4.03-32.28-5.68-36.31-21.71l-68.42-271.79c-4.03-16.02 5.68-32.28 21.71-36.32l225.99-56.88c16.01-4.03 32.28 5.68 36.31 21.71l42.55 169.03z"/><path fill="#fff" d="m1924.92 1307.42-134.11 33.75c-9.41-41.96 8.38-83.93 41.99-107.06-22.65-7.07-41.04-25.8-46.47-50.9-7.5-34.59 13.66-70.19 47.63-80.16 37.48-10.99 76.3 11.41 85.76 49 6.03 23.93-1.41 48.14-17.44 64.57 18.15 2.01 35.3 8.85 49.74 19.48-18.05 18.78-28.21 44.47-27.1 71.32z" opacity=".6"/><path fill="#fda7a8" d="M1114.91 1015.14s-49.18 141.42-70.64 186.72c-23.25 49.07-9.13 322.9-9.13 322.9l-26.06 4.82s-89.99-317.97-62.32-388.98c24.44-62.73 75.32-183.62 75.32-183.62l92.83 58.16z"/><path fill="#fda7a8" d="M1004.25 1593.07c-.7-8.17-.96-15.49-.52-19.26.34-2.91.99-5.67 1.79-8.18.69-2.15 1.48-4.11 2.27-5.83 2.04-4.47 4.07-7.26 4.07-7.26l-8.1-60.21c11.15-3.76 27.34-3.08 30.1-2.81 0 0 2.45 55.99 9.88 63.37.05.08.14.15.2.2.13.07.28.14.42.2 2.11 1.14 4.4 4.07 6.32 7.71 1.41 2.67 2.62 5.7 3.46 8.64 2.05 7.19 21.5 13.65 19.72 17.91-1.79 4.26-14.09 3.57-18.34-.96-4.25-4.51-8.25-.65-7.7 5.24l.17 1.85c1.1 11.76 4.32 48.17-1.49 49.65-3.78.96-6.64-14-8.28-25.68 1.48 14.34 2.86 34.98-1.54 33.91-3.38-.82-7.34-21.46-9.43-33.01.71 8.05 1.53 24.01-1.22 24.33-5.94.68-8.3-15.73-9.22-26.87.1 6.66-.51 14.31-3.64 15.07-3.82.92-7.45-20.53-8.92-38.01z"/><path fill="#ed9498" d="M1035.6 1597.82c0 .02-.02.03-.01.05l2.93 18.01-1.92-18.15v-.03c-.01-.04 3.72-1.05 5.5-1.82-2.68.72-5.41 1.15-8.15 1.48-1.02.11-2.04.22-3.06.31-.02 0 4.19.25 4.71.15zM1024.13 1598.9c0 .01-.01.02-.01.04l2.93 18.01-1.91-18.02c2.74-.18 4.45-1.16 4.45-1.16-1.3.1-2.6.16-3.9.17-1.58.04-3.16-.09-4.74-.29-.01.25 2.1 1.2 3.18 1.25zM1014.93 1597.46l1.82 18.16-.8-18.1c.48.13 3.72.27 3.75-.02-.71-.11-1.43-.22-2.14-.35-2.7-.48-5.39-1.11-8.07-1.78 1.77.75 5.43 2.01 5.44 2.09z"/><path fill="#fff" d="M1045.9 1642c1.48-.34 2.18-5.08 1.89-5.53 0 0-3.89.14-4.54.47-.66.33 1.17 5.4 2.65 5.06zM1037.03 1650.48c1.48-.34 2.18-5.08 1.89-5.53 0 0-3.89.14-4.54.47-.65.32 1.17 5.4 2.65 5.06zM1024.96 1641.6c1.48-.34 2.18-5.08 1.89-5.53 0 0-3.89.14-4.54.47-.65.32 1.17 5.4 2.65 5.06zM1012.72 1628.72c1.48-.34 2.18-5.08 1.89-5.53 0 0-3.89.14-4.54.47-.65.32 1.17 5.4 2.65 5.06zM1068.12 1581.93l-1.39 1.51s4.81 3.84 6.26 3.02c1.46-.83-4.87-4.53-4.87-4.53z" opacity=".2"/><path fill="#a7ccea" d="m1153.48 1018.75-37.66 37.66s-120.31-53.88-120.31-77.42 45.01-179.05 91.02-190.4c46.01-11.35 66.95 230.16 66.95 230.16z"/><path fill="#402051" d="M2624.15 652.92c0 28.4-23.02 51.42-51.42 51.42-28.4 0-51.42-23.02-51.42-51.42 0-28.4 23.02-51.42 51.42-51.42 28.4 0 51.42 23.02 51.42 51.42z"/><circle cx="2491.3" cy="701.29" r="99.5" fill="#33143f"/><path fill="#fb8a77" d="m2541.9 781.56 10.01 99.28s-30.87 45.89-61.74 11.68l.83-66.75 50.9-44.21z"/><path fill="#33133f" d="M2516.62 893.81c-6.64-11.29-9.18-28.46 1.1-38.51 4.16-4.06 9.58-6.61 13.58-10.84 4.99-5.27 5.88-13.25 5.16-20.17-1.19-11.29-5.98-22.3-5.2-33.49L2491 825.78l-.83 66.75c12.06 13.36 24.1 14.48 34.32 10.91-3.01-2.76-5.7-5.95-7.87-9.63z" opacity=".15"/><path fill="#fb8a77" d="M2410.35 679.5s-5.56 159.63 57.85 164.64c63.41 5.01 91.22-61.74 91.22-61.74s11.68 7.23 14.46-4.45c2.78-11.68 16.69-32.26 2.78-40.05-13.9-7.79-18.36 5.01-18.36 5.01l7.79-36.15c0-.01-154.07-79.55-155.74-27.26z"/><path fill="#33133f" d="M2564.46 745.1s8.35-4.51 11.69 2-4.01 31.39-13.86 28.38c0 0 12.69-5.51 11.19-20.7-1.5-15.18-6.85-4.83-9.02-9.68zM2526.01 783.62c.75 4.43-4.08 8.94-10.78 10.07-6.7 1.13-12.74-1.54-13.49-5.98-.75-4.43 4.08-8.94 10.78-10.07 6.71-1.12 12.75 1.55 13.49 5.98zM2450.09 784.04c.75 4.43-4.08 8.94-10.78 10.07-6.7 1.13-12.74-1.55-13.49-5.98-.75-4.43 4.08-8.94 10.78-10.07 6.7-1.13 12.74 1.55 13.49 5.98z" opacity=".05"/><path fill="#33143f" d="M2451.41 746.28c-.8 0-1.54-.52-1.79-1.32-.18-.59-4.73-14.49-23.58-12.68a1.873 1.873 0 1 1-.37-3.73c21.94-2.14 27.47 15.14 27.52 15.32a1.87 1.87 0 0 1-1.78 2.41zM2491.97 746.29c-.31 0-.5-.01-.56-.01a1.882 1.882 0 0 1-1.8-1.94c.04-1.03.94-1.83 1.94-1.8.13 0 13.18.38 25-8.61.83-.63 2-.47 2.63.36.63.82.47 2-.36 2.63-11.64 8.84-24.05 9.37-26.85 9.37zM2473.33 784.42c-5.28 0-8.17-2.85-8.33-3.02-.61-.61-.71-1.56-.26-2.3 2.85-4.63.19-17.11-1.07-21.53-.28-1 .29-2.03 1.29-2.32 1-.28 2.03.29 2.32 1.29.48 1.66 4.29 15.51 1.42 22.96 1.53.88 4.75 2.02 9.58.17.97-.37 2.05.12 2.42 1.08.37.97-.12 2.05-1.08 2.42-2.38.91-4.47 1.25-6.29 1.25z"/><path fill="#33133f" d="M2447.62 757.92c0 5.84-3.24 10.57-7.23 10.57s-7.23-4.73-7.23-10.57 3.24-10.57 7.23-10.57 7.23 4.74 7.23 10.57zM2512.7 757.92c0 5.84-3.24 10.57-7.23 10.57s-7.23-4.73-7.23-10.57 3.24-10.57 7.23-10.57c3.99.01 7.23 4.74 7.23 10.57z"/><path fill="#fff" d="M2493.43 797.47c0 3.97-12.69 13.41-16.65 13.41-3.97 0-21.57-2.42-21.57-6.39s15.31-4.74 19.27-4.74c3.97.01 18.95-6.24 18.95-2.28z"/><path fill="#33133f" d="M2439.23 653.3c.38-6.7.05-11.07.05-11.07-65.91 5.84-34.21 74.25-34.21 74.25 22.88-11.44 30.64-35.63 33.17-53.3 17.71 24.24 60.89 72.91 122.85 74.16l20.02-33.37-141.88-50.67z"/><path fill="#33143f" d="M2447.89 643.1c-13.35 4.57-21.7 18.64-27.73 30.54-5.35 10.56-10.45 21.96-11.69 33.83-.97 9.3-.46 18.79.87 28.03 1.48 10.24 4.41 20.17 5.47 30.49 1.32 12.84.96 26.72-6.76 37.64-5.95 8.42-15.06 13.94-21.86 21.59-2 2.25 1.3 5.57 3.31 3.31 5.96-6.7 13.52-11.73 19.4-18.48 7.12-8.17 10.41-18.16 11.04-28.9 1.1-18.57-5.47-35.99-6.89-54.28-.73-9.38-.88-19.42 1.81-28.52 1.26-4.26 3.02-8.44 4.76-12.51 3.13-7.36 6.72-14.57 11.11-21.26 4.51-6.87 10.33-14.22 18.39-16.97 2.85-.96 1.64-5.49-1.23-4.51zM2493.98 647.82c28.99 9.46 43.38 38.82 51.66 66.03 8.22 27.01 11.03 55.04 16.97 82.54 1.6 7.42 3.3 18.29 10.09 22.97 2.49 1.72 4.83-2.34 2.36-4.05-5.47-3.77-6.82-14.92-8.08-20.83-2.7-12.68-4.54-25.52-6.83-38.27-5.21-28.99-11.61-60.01-28.64-84.67-8.99-13.03-21.11-23.3-36.29-28.25-2.87-.92-4.1 3.6-1.24 4.53z"/></svg>