<svg xmlns="http://www.w3.org/2000/svg" enable-background="new 0 0 3000 2700" viewBox="0 0 3000 2700"><g transform="translate(-1478.886 -1007.848)"><g opacity=".4" transform="translate(390.889 -47.839)"><path fill="#f1e7b6" d="M1381.3 2142c115.1 0 208.4 93.3 208.4 208.4s-93.3 208.4-208.4 208.4c-115.1.1-115.1-416.8 0-416.8z"/><path fill="#f1e7b6" d="M3510.4 2872.4c-86.9-75.5-218.5-66.3-294 20.6s-66.3 218.5 20.6 294c86.8 75.5 360.3-239.1 273.4-314.6z"/><path fill="#f1e7b6" d="M1792.7 1404s-264.9 234-159.4 567.1c81.6 189.5 188.8 215 174.1 432.2-22.1 246.7-465.4 244.3-426.1 674.4 27 189.8 396.9 96.7 755 185.3 292.8 52.1 548.4 450.1 731.1 151.1 118.8-197.1 86.9-401.7 244.9-556.1 180.9-156.2 293.2-118.4 561.8-187.8 265-97 264.8-470 125.5-733-66-118.4-181.1-235.1-443.3-283.8-293.6-53.2-376.9 113.6-567.4-26-111.1-68.6-126.8-308.1-413.5-360-166.1-32.6-399.7-14.3-582.7 136.6"/></g><path fill="#300161" d="M2770 2955.1h201.7v134.5H2770z"/><path fill="#400082" d="M2194.7 1983.9h1344.7c28.9 0 52.3 23.4 52.3 52.3v896.5c0 28.9-23.4 52.3-52.3 52.3H2194.7c-28.9 0-52.3-23.4-52.3-52.3v-896.5c0-28.9 23.5-52.3 52.3-52.3z"/><path fill="#400082" d="M2508.5 3037.3h717.2l53 46.3s5.5 6.1-7.6 6.5c-205.6 1.7-814.9.3-814.9.3-6.2.1-4.6-2.9-2-5.1l54.3-48z"/><path fill="#cce9f1" d="M2202.2 2043.7h1337.2V2858H2202.2z"/><path fill="#fff" d="M2418.8 2051.2h141.9l449.5 801.5h-141.9l-449.5-801.5z" enable-background="new" opacity=".4"/><path fill="#00bdaa" d="M2239.6 2215.5h343.6V2858h-343.6z"/><path fill="#cce9f1" d="M2254.5 2267.8h37.4v44.8h-37.4z"/><path fill="#cbe9f1" d="M2306.8 2267.8h261.5v44.8h-261.5z"/><circle cx="2501" cy="2290.2" r="7.5" fill="#400082"/><circle cx="2523.4" cy="2290.2" r="7.5" fill="#fe346e"/><circle cx="2545.8" cy="2290.2" r="7.5" fill="#400082"/><g transform="translate(0 9)"><path fill="#cce9f1" d="M2254.5 2326h37.4v44.8h-37.4z"/><path fill="#cbe9f1" d="M2306.8 2326h261.5v44.8h-261.5z"/><circle cx="2501" cy="2348.5" r="7.5" fill="#400082"/><circle cx="2523.4" cy="2348.5" r="7.5" fill="#fe346e"/><circle cx="2545.8" cy="2348.5" r="7.5" fill="#400082"/></g><g transform="translate(0 18)"><path fill="#cce9f1" d="M2254.5 2384.3h37.4v44.8h-37.4z"/><path fill="#cbe9f1" d="M2306.8 2384.3h261.5v44.8h-261.5z"/><circle cx="2501" cy="2406.7" r="7.5" fill="#400082"/><circle cx="2523.4" cy="2406.7" r="7.5" fill="#fe346e"/><circle cx="2545.8" cy="2406.7" r="7.5" fill="#400082"/></g><circle cx="2411.4" cy="2805.7" r="29.9" fill="#fff" enable-background="new" opacity=".8"/><g transform="translate(49 -46.556)"><path fill="#00bdaa" d="M2556.6 1911H3087v993.6h-530.4z"/><g transform="translate(1556 1153.985)"><path fill="#cce9f1" d="M1023 839.1h59.8v74.7H1023z"/><g transform="translate(11)"><path fill="#cbe9f1" d="M1094.2 839.1h403.4v74.7h-403.4z"/><g transform="translate(38 3.117)"><circle cx="1351.3" cy="877.1" r="11.2" fill="#400082"/><circle cx="1388.6" cy="877.1" r="11.2" fill="#fe346e"/><circle cx="1426" cy="877.1" r="11.2" fill="#400082"/></g></g><g transform="translate(0 13.508)"><path fill="#cce9f1" d="M1023 930.2h59.8v67.2H1023z"/><g transform="translate(11)"><path fill="#cbe9f1" d="M1094.2 930.2h403.4v67.2h-403.4z"/><g transform="translate(38 3.117)"><circle cx="1351.3" cy="960.7" r="11.2" fill="#400082"/><circle cx="1388.6" cy="960.7" r="11.2" fill="#fe346e"/><circle cx="1426" cy="960.7" r="11.2" fill="#400082"/></g></g></g><g transform="translate(0 28.055)"><path fill="#cce9f1" d="M1023 1020.3h59.8v67.2H1023z"/><g transform="translate(11)"><path fill="#cbe9f1" d="M1094.2 1020.3h403.4v67.2h-403.4z"/><g transform="translate(38 2.078)"><circle cx="1351.3" cy="1051.8" r="11.2" fill="#400082"/><circle cx="1388.6" cy="1051.8" r="11.2" fill="#fe346e"/><circle cx="1426" cy="1051.8" r="11.2" fill="#400082"/></g></g></g></g><circle cx="2821.8" cy="2826.1" r="48.6" fill="#fff" enable-background="new" opacity=".8"/></g><g transform="translate(123)"><path fill="#00bdaa" d="M3035.4 2215.5H3379V2858h-343.6z"/><path fill="#cce9f1" d="M3050.4 2267.8h37.4v44.8h-37.4z"/><path fill="#cbe9f1" d="M3102.7 2267.8h261.5v44.8h-261.5z"/><circle cx="3296.9" cy="2290.2" r="7.5" fill="#400082"/><circle cx="3319.3" cy="2290.2" r="7.5" fill="#fe346e"/><circle cx="3341.7" cy="2290.2" r="7.5" fill="#400082"/><g transform="translate(0 9)"><path fill="#cce9f1" d="M3050.4 2326h37.4v44.8h-37.4z"/><path fill="#cbe9f1" d="M3102.7 2326h261.5v44.8h-261.5z"/><circle cx="3296.9" cy="2348.5" r="7.5" fill="#400082"/><circle cx="3319.3" cy="2348.5" r="7.5" fill="#fe346e"/><circle cx="3341.7" cy="2348.5" r="7.5" fill="#400082"/></g><g transform="translate(0 18)"><path fill="#cce9f1" d="M3050.4 2384.3h37.4v44.8h-37.4z"/><path fill="#cbe9f1" d="M3102.7 2384.3h261.5v44.8h-261.5z"/><circle cx="3296.9" cy="2406.7" r="7.5" fill="#400082"/><circle cx="3319.3" cy="2406.7" r="7.5" fill="#fe346e"/><circle cx="3341.7" cy="2406.7" r="7.5" fill="#400082"/></g><circle cx="3207.2" cy="2805.7" r="29.9" fill="#fff" enable-background="new" opacity=".8"/></g><g transform="translate(-1307.555 -358.488)"><path fill="#00bdaa" d="m4480.9 1829.5 209.7-62.3 209.2 61.7s-7.3 256-30.7 313.6c-10.4 35.6-25.3 81.8-178.5 170.6-30.6-13.4-125.8-64.3-178.4-170.8-5-13.4-24.3-68-31.3-312.8"/><path fill="#02645a" d="m4480.9 1829.5 209.7-62.3-.1 545.9c-30.6-13.4-125.8-64.3-178.4-170.8-4.9-13.4-24.2-68-31.2-312.8" enable-background="new" opacity=".6"/><path fill="none" stroke="#fff" stroke-width="4" d="m4495.2 1843.5 196-58.5 195.4 58s-6.8 240.4-28.7 294.5c-9.7 33.4-23.6 76.8-166.8 160.2-71.9-33.3-130.6-89.8-166.7-160.4-4.6-12.7-22.7-63.9-29.2-293.8"/><g transform="translate(2998.543 1412.556)"><ellipse cx="1687.9" cy="608.8" fill="#fff" rx="112.1" ry="108.3"/><path fill="none" stroke="#00bdaa" stroke-width="12" d="m1631.9 599.3 44.6 44.6 64.9-64.9"/></g></g><g transform="translate(-752 -224)"><g transform="translate(2249 1358.5)"><path fill="#400082" d="M435.4 1275.7V1025c0-4.1 3.3-7.5 7.5-7.5h28.3c4.1 0 7.5 3.3 7.5 7.5v250.7c0 4.1-3.3 7.5-7.5 7.5h-28.3c-4.1 0-7.5-3.4-7.5-7.5z"/><path fill="#400082" d="M339.2 1133.3h239.1c4.1 0 7.5 3.3 7.5 7.5v22.4c0 4.1-3.3 7.5-7.5 7.5H339.2c-4.1 0-7.5-3.3-7.5-7.5v-22.4c0-4.1 3.3-7.5 7.5-7.5z"/><path fill="#400082" d="M383.7 1048.6 561 1225.9c2.9 2.9 2.9 7.6 0 10.6l-20 20c-2.9 2.9-7.6 2.9-10.6 0l-177.3-177.3c-2.9-2.9-2.9-7.6 0-10.6l20-20c2.9-2.9 7.7-2.9 10.6 0z"/><path fill="#400082" d="m353.1 1230.2 182.6-182.6c2.9-2.9 7.6-2.9 10.6 0l20 20c2.9 2.9 2.9 7.6 0 10.6l-182.6 182.6c-2.9 2.9-7.6 2.9-10.6 0l-20-20c-2.9-3-2.9-7.7 0-10.6z"/></g><circle cx="2707.7" cy="2506.7" r="104.6" fill="#400082"/><g transform="translate(2258.117 1367.267)"><circle cx="449.6" cy="1139.5" r="52.3" fill="#fff"/><g transform="translate(-.117 -.267)"><circle cx="449.7" cy="1139.7" r="67.2" fill="none"/><circle cx="449.7" cy="1139.7" r="63.5" fill="none" stroke="#fff" stroke-width="2"/></g></g></g><g><path fill="#fbcc98" d="M2254.4 1702.3c6.7 8.8 14 17.2 21.8 25.1 4.2 2.6-21.8 30-21.8 30s-19.5-17.9-27-24.4-21.5-31.3-17.3-47.9c1.5-10.6 11.3-17.9 21.9-16.4 2.6.4 5.1 1.3 7.4 2.7 11.7 5.5 15 30.9 15 30.9z"/><path fill="#fbcc98" d="M2176.8 1704.3s40.2 55.6 56.7 38.5-13.2-60.5-21.5-66.1c-8.3-5.5-35.2 27.6-35.2 27.6z"/><path fill="#192964" d="M2188.5 1710s-7.9 18.9-37.7-11c-4.6-4.3-9-9-13-13.9 0 0 28.7 2.9 35.9 0 7.2-2.9-.1-43 43.3-43s30.3 50.7 47.7 67.9c-23.3 1-22-12.9-25.8-23.1-4.7-14-17.4 3-11.9 12.1 2.9 4.4 5.2 9.2 6.8 14.2 0 0-16.9-36.4-41.5-20.3-14.9 9.7-3.8 17.1-3.8 17.1z"/><g transform="rotate(-29 1535.92 1106.014)"><path fill="#fbcc98" d="m1552.6 2269.4-12 10.5 18.1 14 11.7-24.5h-17.8z"/><path fill="#192d54" d="M1543.3 2276.4s-52-7.9-68.3-10.5c-16.3-2.5 65.9 49.2 74.2 49.6 8.3.4 11.2-25.8 11.2-25.8l-17.1-13.3z"/></g><path fill="#192d54" d="M2104.3 1973.8v143.8s32.1 1.8 29.3 0c-2.8-1.8 26.6-130 31.1-160.3 4.6-30.2-60.4 16.5-60.4 16.5z"/><path fill="#fbcc98" d="m2026.6 2090.3-12 10.5 18.1 14 11.7-24.5h-17.8z"/><path fill="#0d3266" d="M2017.3 2097.3s-52-7.9-68.3-10.5c-16.3-2.5 65.9 49.2 74.2 49.6s11.2-25.8 11.2-25.8l-17.1-13.3z"/><path fill="#fbcc98" d="M2191.2 1880.2s-69.3-11.1-68.1 19c.2 18.2 13.6-3 22.2-3.2s4.9 6.4 10.9 8.6c5.9 2.2 35-8.6 35-8.6v-15.8z"/><path fill="#2b426e" d="M2232.5 1911.3s-123.8-15.2-136.9 8.6c-13.1 23.8-69.1 166.7-69.1 166.7l15.5 13.1s66.7-123.8 100-123.8 19 2.4 69.1 14.3c50 11.9 121.4 16.7 138.1-20.2 16.7-36.9 14.3-83.3-33.3-84.5-29.8-.3-58.9 8.8-83.4 25.8z"/><path fill="#0d3266" d="M2238.4 1881.5c.8-11.2-8.5-126.5 25-155.4 33.5-28.9 100.5 36.3 98.6 213.1-2.8 33.5-19.5 46.5-19.5 46.5s-12.1-65.1-29.8-78.1c-17.7-13-13.1 31.6-49.3 19.5-25.1-7.8-49.8-17-74-27.4 1.7-.6 0-18.2 0-18.2h49z"/><g><path fill="#0d3266" d="M2082.7 1901.8h82.2v7.5h-82.2z"/><path fill="#0d3266" d="m2037.4 1834.2 58.6 62.8c2.1 2.3 2 5.8-.3 7.9-2.3 2.1-5.8 2-7.9-.3l-58.6-62.8c-2.1-2.3-2-5.8.3-7.9 2.3-2.1 5.8-2 7.9.3z"/></g></g><g><g transform="translate(459 558.038)"><path fill="#00bdaa" d="M1483.1 2516.6h84s28.7-97.4 6.8-146.1c-9.5 24.7-38.1 47.1-38.1 47.1s14-35.9 26.3-47.1c23.5-22.9-23-101.7-26.3-109.6-2.8 20.6-29.1 50.3-49.3 50.3s15.1-53.7 31.4-67.7c17.4-12.3-76.7-89.6-89.6-100.2-45-33.8-105.3-64.2-123.6-65 0 25.4-6.6 64.7 0 146.1 40 4.5 82.3 8.8 99.7 27-27.6 14.6-46.6 13.1-93.1 3.6 0 18.2 24.3 107.2 36.5 115.5 25.3-4.1 79.9 12.6 90.1 24.3-13.1 14.6-82.3 4.9-74.2 12.3s53.8 74.2 119.4 109.5"/><path fill="#07776c" d="M1689 2516.6h-84s-28.7-97.4-6.8-146.1c9.5 24.7 38.1 47.1 38.1 47.1s-14-35.9-26.3-47.1c-23.5-22.9 23-101.7 26.3-109.6 2.8 20.6 29.1 50.3 49.3 50.3s-15.1-53.7-31.4-67.7c-17.4-12.3 76.7-89.6 89.6-100.2 45-33.8 105.3-64.2 123.6-65 0 25.4 6.6 64.7 0 146.1-40 4.5-82.3 8.8-99.7 27 27.6 14.6 46.6 13.1 93.1 3.6 0 18.2-24.3 107.2-36.5 115.5-25.3-4.1-79.9 12.6-90.1 24.3 13.1 14.6 82.3 4.9 74.2 12.3s-53.9 74.2-119.4 109.5"/><g transform="translate(1065.427 655.341)"><path fill="#00bdaa" d="M501.7 1861.2c21.3-.2 36.5 0 36.5 0s73.1-204.4 100.2-235.1c-22.6-40-38.5-76.9-39.2-93.7-.7-16.8-79 242.6-97.5 328.8z"/><path fill="#00a292" d="M597.2 1532.4c24.6-6 50.2-6 74.8 0 6.6 6 17 116.7 0 137.5-27.4-11.4-75.7-116.4-74.8-137.5"/></g><g transform="translate(1060.422 618.105)"><path fill="#1c9c90" d="m471 1876.1 50.2 11.6s89.9-411.3 182.8-578.1c-79.8 54.7-176.6 289.4-224.8 530.9-3.5 11.7-6.2 23.6-8.2 35.6z"/><path fill="#0a8276" d="M470.1 1898.5h51.5s-4.9-420.9 48-604.4c-65.4 71.2-107 321.7-99.6 567.9-.6 12.1-.6 24.3.1 36.5z"/></g></g><path fill="#400082" d="M1843.6 3074.6h381v14.9h-381z"/></g></g></svg>