<svg xmlns="http://www.w3.org/2000/svg" data-name="Layer 1" viewBox="0 0 1000 700"><path fill="#fff2e1" d="m261.317 581.477-98.47-161.462a88.583 88.583 0 0 1 22.708-117.16L463.642 95.691a88.583 88.583 0 0 1 75.279-14.676l201.471 52.554a88.583 88.583 0 0 1 57.343 47.054l81.89 168.823a88.583 88.583 0 0 1-.163 77.655l-71.578 146a88.583 88.583 0 0 1-79.256 49.589l-391.401 1.246a88.583 88.583 0 0 1-75.91-42.46Z"/><path fill="#67ba31" d="M736.77 355.543s21.375-55.274 16.762-87.204l-20.806 6.225 19.06-14.72s-4.439-34.567-22.125-60.67l-18.133 9.642 11.613-17.269a210.492 210.492 0 0 0-41.797-28.638s-13.84 32.049-11.011 70.066l21.851 2.971-20.88 6.362s6.374 30.754 15.95 49.655l16.33.915-12.747 7.607s17.105 40.445 45.933 55.058Z"/><path fill="#499331" d="M734.175 341.273a1 1 0 0 1-.995-.908c-3.464-37.476-48.439-164.499-48.893-165.778a1 1 0 1 1 1.885-.668c.455 1.28 45.513 128.54 49 166.262a1 1 0 0 1-.904 1.088 1.01 1.01 0 0 1-.093.004Z"/><path fill="#499331" d="M688.563 269.975a1 1 0 0 1-.102-1.995l26.797-2.796a1 1 0 0 1 .207 1.99l-26.797 2.795a1.06 1.06 0 0 1-.105.006ZM708.312 242.234a1 1 0 0 1-.688-1.725c5.621-5.33 18.762-17.77 19.361-18.175a1 1 0 0 1 1.147 1.638c-.748.6-11.838 11.073-19.133 17.988a.994.994 0 0 1-.688.274ZM698.219 213.056a.993.993 0 0 1-.278-.04l-19.195-5.515a1 1 0 1 1 .553-1.922l19.195 5.515a1 1 0 0 1-.275 1.962ZM725.53 298.875a1 1 0 0 1-.63-1.777l17.575-14.245a1 1 0 1 1 1.26 1.554L726.16 298.65a.998.998 0 0 1-.629.224Z"/><path fill="#7ec13d" d="M751.653 370.094s-12.412-68.56 0-104.402l22.64 11.805-18.74-21.225s12.797-38.924 39.01-65.136l18.795 15.155-9.575-22.514a247.47 247.47 0 0 1 54.613-23.789s8.866 40.074-2.837 83.338l-25.888-1.418 22.696 11.98s-14.185 34.091-29.434 53.788l-19.058-2.567 13.03 11.611s-28.726 42.9-65.252 53.374Z"/><path fill="#5ca541" d="M758.036 354.04a1.002 1.002 0 0 1-.96-1.279c12.39-42.758 92.645-179.666 93.454-181.044a1 1 0 1 1 1.725 1.013c-.808 1.376-80.936 138.068-93.258 180.588a1.001 1.001 0 0 1-.96.722Z"/><path fill="#5ca541" d="M826.52 281.845a.999.999 0 0 1-.29-.044l-30.318-9.175a1 1 0 0 1 .58-1.914l30.318 9.175a1 1 0 0 1-.29 1.958ZM809.879 245.435a1 1 0 0 1-.814-.417c-6.927-9.66-17.47-24.299-18.114-25.035a1.014 1.014 0 0 1 .058-1.401.988.988 0 0 1 1.38.01c.61.61 14.162 19.488 18.302 25.26a1 1 0 0 1-.812 1.583ZM828.006 213.986a1 1 0 0 1-.089-1.996l23.386-2.108a1 1 0 1 1 .18 1.992l-23.386 2.108c-.03.003-.06.004-.091.004ZM777.43 307.007a.997.997 0 0 1-.766-.356l-17.131-20.347a1 1 0 1 1 1.529-1.288l17.132 20.347a1 1 0 0 1-.764 1.644Z"/><rect width="10.696" height="148.891" x="402.888" y="475.204" fill="#5b2448" rx="4.974"/><rect width="10.696" height="148.891" x="491.998" y="475.204" fill="#5b2448" rx="4.974"/><rect width="10.696" height="148.891" x="704.908" y="475.204" fill="#5b2448" rx="4.974"/><rect width="10.696" height="148.891" x="794.019" y="475.204" fill="#5b2448" rx="4.974"/><path fill="#9c3d82" d="M402.888 429.724h401.826v55.916H402.888z"/><rect width="511.913" height="15.201" x="347.844" y="426.731" fill="#5b2448" rx="5.711"/><path fill="#f94f46" d="M770.654 337.718s56.494 6.863 47.356 59.515c-8.173 47.09-70.269 32.55-73.185 25.981 0 0-58.432 16.012-76.673-12.267 0 0-30.348 22.461-64.917 7.632 0 0-20.521 15.963-52.427 11.487s-64.186-93.849-38.447-127.69 68.82-15.873 68.82-15.873 52.28-29.388 93.446 4.723c0 0 94.404-19.702 96.027 46.492Z"/><path fill="#5b2448" d="M744.823 424.714a1.5 1.5 0 0 1-1.14-2.475c31.934-37.362 25.555-83.838 25.487-84.303a1.5 1.5 0 0 1 2.968-.437c.07.478 6.67 48.262-26.174 86.69a1.498 1.498 0 0 1-1.14.525Z"/><path fill="#5b2448" d="M770.91 340.273h-.139a1.5 1.5 0 0 1-1.457-1.745c.92-5.538 5.577-9.566 9.516-10.966 2.47-.877 4.625-.724 5.918.417.758.67 1.554 1.951 1.045 4.258-1.719 7.784-13.39 8.036-14.883 8.036Zm10.904-10.282a6.097 6.097 0 0 0-1.98.398 12.44 12.44 0 0 0-7.049 6.788c3.17-.28 9.146-1.367 10.078-5.587.147-.667.11-1.176-.102-1.363a1.489 1.489 0 0 0-.947-.236ZM668.151 412.447a1.502 1.502 0 0 1-1.307-2.234c20.071-35.789 20.78-66 17.84-85.041-3.186-20.644-11.227-32.996-11.308-33.119a1.5 1.5 0 0 1 2.501-1.656c.343.517 8.436 12.911 11.747 34.153 3.046 19.542 2.367 50.521-18.163 87.13a1.501 1.501 0 0 1-1.31.767Z"/><path fill="#5b2448" d="M675.11 292.726a1.5 1.5 0 0 1-1.5-1.536c.177-7.48 3.853-11.81 7.192-12.666a4.599 4.599 0 0 1 5.287 2.227 3.86 3.86 0 0 1 .316 3.177c-1.346 4.254-9.717 8.221-10.667 8.66a1.49 1.49 0 0 1-.628.138Zm6.981-11.37a2.197 2.197 0 0 0-.543.074c-1.556.4-3.928 2.687-4.696 7.221 2.89-1.607 6.14-3.878 6.693-5.628a.853.853 0 0 0-.051-.767 1.566 1.566 0 0 0-1.402-.9Z"/><path fill="#5b2448" d="M674.89 292.668a1.506 1.506 0 0 1-.636-.142c-4.387-2.056-10.776-9.54-9.58-13.574.32-1.075 1.398-2.802 5.053-2.296a7.434 7.434 0 0 1 5.35 3.196c2.962 4.327 1.344 11.363 1.274 11.66a1.5 1.5 0 0 1-1.46 1.155Zm-6.407-13.103c-.588 0-.896.12-.932.24-.439 1.479 2.702 6.35 6.206 8.93.216-2.205.157-5.276-1.158-7.194a4.494 4.494 0 0 0-3.287-1.913 6.02 6.02 0 0 0-.829-.063ZM770.688 339.363a1.5 1.5 0 0 1-1.06-.44c-4.703-4.703-5.705-12.9-3.02-15.585 1.084-1.083 3.004-1.476 5.141.662 5.454 5.454.452 14.245.237 14.616a1.5 1.5 0 0 1-1.103.735 1.54 1.54 0 0 1-.195.012Zm-2.011-13.904a3.874 3.874 0 0 0-.48 1.715 12.864 12.864 0 0 0 2.13 7.885c.917-2.41 1.841-6.398-.699-8.938-.63-.63-.948-.662-.951-.662ZM603.236 420.08a1.501 1.501 0 0 1-1.445-1.905c12.073-43.237 5.537-76.443-2.071-96.686-8.25-21.947-19.507-33.83-19.62-33.947a1.5 1.5 0 0 1 2.163-2.08c.474.494 11.73 12.349 20.209 34.822 7.803 20.687 14.521 54.602 2.208 98.697a1.5 1.5 0 0 1-1.444 1.098Z"/><path fill="#5b2448" d="M581.653 288.003a1.5 1.5 0 0 1-1.435-1.064c-2.413-7.957-2.631-12.645-.647-13.932 1.15-.747 2.596-.382 4.292 1.088a7.677 7.677 0 0 1 3.03 6.094c-.119 4.21-4.152 7.37-4.324 7.501a1.5 1.5 0 0 1-.916.313Zm-.417-12.15a28.218 28.218 0 0 0 1.167 7.757 6.202 6.202 0 0 0 1.491-3.516 4.782 4.782 0 0 0-1.996-3.73 6.212 6.212 0 0 0-.662-.511Z"/><path fill="#5b2448" d="M580.2 288.002c-6.672 0-9.245-3.208-10.061-4.642a6.218 6.218 0 0 1-.027-6.433 4.41 4.41 0 0 1 4.326-1.98c6.342.735 8.148 10.848 8.222 11.279a1.5 1.5 0 0 1-1.406 1.751c-.362.017-.715.025-1.055.025Zm-6.345-10.089a1.408 1.408 0 0 0-1.24.67 3.236 3.236 0 0 0 .131 3.294c1.044 1.833 3.385 2.925 6.551 3.1-.772-2.759-2.467-6.733-5.205-7.05a1.991 1.991 0 0 0-.236-.014Z"/><path fill="#fc868f" d="M523.043 298.05s19.19-11.98 38.38 7.46 45.13 116.003 3.57 122.06c-47.464 6.916-75.087-104.768-41.95-129.52Z"/><path fill="#cc505a" d="M525.386 311.392s4.686.893-2.9 12.162-1.005 28.45-5.803 29.9-10.264-38.603 8.703-42.062ZM568.25 356.244s-4.519.502 0 19.246.335 29.957-6.862 33.639 6.695 14.727 16.234 0-2.343-57.57-9.372-52.885ZM536.49 364.445s-.67 9.483 6.471 11.938 7.03 13.611-3.905 11.715-12.942-26.108-6.583-28.45 4.017 3.43 4.017 4.797ZM549.57 312.146s9.275 2.51 9.825 10.627-3.801-1.59-10.83-3.515-4.853-7.698 1.004-7.112Z"/><path fill="#cb4069" d="M453.583 363.482s-54.238-6.601-76.704 24.056 18.816 47.268 52.657 41.2 41.777 8.526 63.404.029 16.451-57.18-39.357-65.285Z"/><path fill="#fc868f" d="M452.187 359.93s-54.238-6.602-76.704 24.056 18.816 47.267 52.657 41.2 41.777 8.525 63.405.028 16.45-57.18-39.358-65.285Z"/><path fill="#cc505a" d="M387.587 395.623s2.386-3.582 9.091 6.68 23.3 10.821 22.822 15.319-35.696-5.017-31.913-21.999ZM439.919 375.732s-1.169 3.933 16 6.756 25.022 10.237 25.556 17.512 14.593-.396 5.698-13.495-48.682-18.261-47.254-10.773ZM435.588 405.014s7.65 3.885 12.196-1.19 13.783-1.065 8.369 7.359-26.247 1.595-25.963-4.514 4.262-2.135 5.398-1.655ZM396.701 375.783s5.343-6.83 12.284-4.438-2.656 2.602-6.723 7.77-8.104 1.332-5.56-3.332Z"/><path fill="#5b2448" d="M277.16 556.15a11.172 11.172 0 0 0-4.582 6.742c-.782 4.32 17.47 31.437 78.966.894 0 0-44.772-25.85-74.384-7.636ZM194.358 552.01s-8.128 2.487-10.601 9.18 56.788 29.563 75.71 0c0 0-47.342-11.98-65.11-9.18ZM439.44 264.795s6.044 2.536 11.576-.689-6.283-50.067-26.544-53.89c0 0-16.031 28.948 14.968 54.579Z"/><path fill="#f4ada2" d="M427.277 243.305s16.565-10.925 19.954-10.817 12.191 4.986 16.808.654 9.605-20.272 7.005-26.045-30.383-6.907-48.69 4.343c-30.018 18.447-8.724 39.644 4.923 31.865Z"/><path fill="#6a74ef" d="M465.76 155.681h4.612v43.044h-4.612z" transform="rotate(16.453 468.066 177.203)"/><rect width="11.404" height="48.286" x="449.798" y="195.611" fill="#f94f46" rx="3.739" transform="rotate(16.451 455.533 219.779)"/><path fill="#6a74ef" d="m503.637 116.888-16.335-4.824-16.335-4.823a4.02 4.02 0 0 0-4.993 2.716l-7.103 24.051a4.02 4.02 0 0 0-.031 2.163l4.61 17.493a4.02 4.02 0 0 0 2.749 2.83l7.342 2.168 7.342 2.168a4.02 4.02 0 0 0 3.845-.883l13.374-12.182a4.02 4.02 0 0 0 1.148-1.833l7.103-24.05a4.02 4.02 0 0 0-2.716-4.994Zm-32.465 20.354a1.408 1.408 0 1 1-2.69-.795l5.69-19.266a1.408 1.408 0 1 1 2.69.794Zm6.228 1.839a1.408 1.408 0 1 1-2.69-.794l5.69-19.267a1.408 1.408 0 1 1 2.69.795Zm6.228 1.84a1.408 1.408 0 1 1-2.69-.795l5.69-19.267a1.408 1.408 0 1 1 2.69.795Zm6.229 1.839a1.408 1.408 0 1 1-2.69-.795l5.69-19.266a1.408 1.408 0 1 1 2.69.794Z"/><path fill="#9c3d82" d="M424.472 210.223c-.717.39-1.426.792-2.118 1.217-30.018 18.448-8.723 39.644 4.923 31.865 0 0 6.666-4.395 12.406-7.582-4.709-5.542-14.042-17.389-15.211-25.5Z"/><path fill="#fff" d="M300.366 234.418s-8.94-23.617 6.06-23.36c21.74.372 62.47 38.15 62.47 38.15s47.653-35.828 55.577-38.992c0 0 7.668 37.91 26.543 53.89-4.17 2.632-67.58 42.596-99.471 38.225-19.314-2.648-34.12-20.757-51.179-67.913Z"/><path fill="#f4ada2" d="m342.083 550.674 9.461 13.112-.484 32.378h-35.758l.633-44.774 26.148-.716z"/><path fill="#9c3d82" d="m315.935 551.39-.4 22.925c7.955.127 25.47-.803 36.01-10.529l-9.462-13.111Z"/><path fill="#f94f46" d="M297.576 355.793s50.988 76.284 53.968 207.993c0 0-21.306 11.77-42.314-2.682s-36.652 1.788-36.652 1.788 6.258-70.622-14.303-104.295-35.46-86.117-25.328-100.718 48.82-17.896 64.629-2.086Z"/><path fill="#f4ada2" d="m256.891 552.009 2.575 9.181-7.31 34.974-34.423-2.455 8.91-40.937 30.248-.763z"/><path fill="#9c3d82" d="m226.643 552.772-4.263 19.554c10.44.679 31.733.541 37.086-11.136l-2.575-9.18Z"/><path fill="#f94f46" d="M259.466 561.19s-7.431 11.348-35.125 2.143c-38.09-12.659-40.584-2.143-40.584-2.143s14.963-61.123 18.196-93.952a219.44 219.44 0 0 0-15.17-27.414c-24.215-37.935-17.304-83.991-17.304-83.991 4.466-15.158 14.004-15.946 14.004-15.946s35.353-5.038 58.518 22.388c40.414 47.839 24.59 154.727 17.465 198.915Z"/><path fill="#fca19b" d="M259.862 559.231a.491.491 0 0 1-.08-.006.5.5 0 0 1-.414-.574c5.862-36.356 23.699-146.992-17.749-196.053a.5.5 0 0 1 .764-.646c41.743 49.413 23.852 160.39 17.972 196.858a.5.5 0 0 1-.493.421ZM209.126 495.301a.5.5 0 0 1-.497-.453c-.023-.242-2.392-24.374-14.932-42.616a.5.5 0 1 1 .825-.566c12.69 18.461 15.08 42.845 15.103 43.089a.5.5 0 0 1-.452.544.492.492 0 0 1-.047.002Z"/><path fill="#fff" d="M278.83 199.247s-93.36 37.376-109.354 156.583c0 0 41.215 33.793 86.716 17.562s58.007-6.919 60.135-1.863c0 0 31.83-111.224-10.219-163.301Z"/><path fill="#ffcf2d" d="M273.137 201.922s20.085.856 24.439 44.66l25.223-1.64s-8.898-28.921-16.691-36.715c0 0 3.975-1.426 10.551 9.897s24.667 59.397 14.026 121.399 12.814 96.725 12.814 96.725-54.234 26.566-104.89 5.629c0 0-10.43-48.579 8.343-96.534s56.38-112.393 18.878-139.473Z"/><path fill="#5b2448" d="M322.66 141.182s2.428 17.986-12.968 17.71-23.78 14.352-23.78 14.352l3.3 10.668-1.231 4.632s-5.66 2.612-7.922-4.973-1.563-15.77-5.177-18.963-7.765-12.776-.8-16.008c0 0-.968-13.785 9.1-12.133 7.863 1.29 17.376-9.252 27.031-7.612 5.509.936 7.066 10.422 7.066 10.422s4.539-2.633 5.38 1.905Z"/><path fill="#f4ada2" d="M301.94 188.318s-2.384 8.971 4.168 19.91c0 0-18.858 8.288-27.278-8.98 0 0 10.859-2.612 7.596-20.99Z"/><path fill="#9c3d82" d="m301.94 188.318-14.62-9.48a14.779 14.779 0 0 0 .77 5.243c4.476 8.995 9.989 12.377 13.936 13.619a23.261 23.261 0 0 1-.085-9.382Z"/><path fill="#f4ada2" d="M274.714 165.218c1.252-6.136 10.16 1.543 10.16 1.543s-4.53-23.056 18-21.933a11.884 11.884 0 0 1 10.942 9.183c.338 1.441.695 3.026 1.048 4.704s1.729 7.623 4.767 9.704c2.64 1.809.086 4.693-2.39 5.225.69 7.44.304 14.08-2.688 16.354-8.039 6.111-25.888 1.08-30.075-12.69 0 0-12.14-.438-9.764-12.09Z"/><path fill="#9c3d82" d="M306.518 183.33a3.437 3.437 0 0 1-2.455-.894 4.555 4.555 0 0 1-1.202-3.15.5.5 0 0 1 .5-.484h.014a.5.5 0 0 1 .486.512 3.578 3.578 0 0 0 .893 2.4 2.665 2.665 0 0 0 2.142.599c3.215-.273 3.57-2.7 3.584-2.803a.5.5 0 0 1 .992.122c-.004.033-.445 3.333-4.492 3.677a5.36 5.36 0 0 1-.462.02Z"/><circle cx="293.34" cy="175.983" r="3.969" fill="#ef978e"/><path fill="#5b2448" d="M316.66 148.533s-9.573 10.521-26.644 4.863c0 0 .516 11.91-4.045 15.403 0 0-4.285-8.912-6.682-10.258s-.095-18.506 16.425-19.232 20.129 5.692 20.945 9.224ZM319.297 359.1s-2.751 16.597 5.619 20.282 33.49-58.392 18.583-66.044c0 0-25.473 22.87-24.202 45.761Z"/><path fill="#6a74ef" d="m379.117 313.978 102.374-88.987s23.131 44.707-61.454 121.181l-25.609-29.462-7.369 6.405Z"/><path fill="#e0effc" d="m420.037 346.172-15.524-17.86c74.687-54.446 76.978-103.32 76.978-103.32s23.131 44.706-61.454 121.18Z"/><rect width="64.901" height="17.935" x="329.41" y="327.62" fill="#f94f46" rx="1.733" transform="rotate(139.002 361.86 336.587)"/><path fill="#f4ada2" d="M322.904 339.392s19.555 3.366 21.953 5.764 5.48 11.978 11.81 11.978 20.876-8.214 22.929-14.202-17.431-25.826-38.48-30.147c-34.514-7.086-33.487 22.943-18.212 26.607Z"/><path fill="#9c3d82" d="M343.493 313.346a46.417 46.417 0 0 0-2.377-.561c-34.514-7.086-33.487 22.943-18.212 26.607 0 0 7.868 1.355 14.235 2.958.358-7.263 1.657-22.289 6.354-29.004Z"/><path fill="#fff" d="M277.42 206.764c17.954 8.79-.622 75.926-6.375 93.9 0 0 46.642 4.992 72.454 12.674 0 0-24.821 40.087-18.583 66.044 0 0-110.16-16.342-123.566-64.746-6.674-24.096 43.388-123.874 76.07-107.872Z"/><path fill="#bcbec0" d="M305.4 376.11a.504.504 0 0 1-.11-.011c-34.806-7.767-94.654-26.06-104.422-61.33-2.808-10.14 4.287-34.268 17.255-58.672a.5.5 0 1 1 .883.468c-12.858 24.198-19.92 48.023-17.175 57.938 9.629 34.765 69.09 52.903 103.678 60.62a.5.5 0 0 1-.11.988Z"/><path fill="#f0f7f7" d="M270.507 155.836c6.22-2.16 39.759-13.86 47.558-17.701a.988.988 0 0 0 .466-1.28l-20.279-45.382a.977.977 0 0 0-1.109-.555c-2.108.476-7.899 2.092-10.735 5.945a.979.979 0 0 1-.972.406c-2.202-.425-9.905-1.457-14.564 3.745a.958.958 0 0 1-.758.332c-1.898-.086-9.35-.17-13.489 3.45a.97.97 0 0 0-.282.975l12.903 49.387a.974.974 0 0 0 1.262.678Z"/><path fill="#fcb20d" d="m296.556 269.08 28.17-2.682s.894 21.157-1.192 28.607-31.16 19.815-26.978-25.925Z"/><path fill="#bcbec0" d="M295.68 304.339a.491.491 0 0 1-.08-.006c-18.389-2.948-43.209-5.267-43.457-5.29a.5.5 0 1 1 .092-.996c.249.023 25.101 2.345 43.523 5.298a.5.5 0 0 1-.078.994Z"/><path fill="#fcfbf0" d="M293.628 609.886s1.137 6.77-12.395 9.58-52.123.263-58.108 1.137-16.544-.038-17.612-6.569.956-11.016 3.64-11.796 84.475 7.648 84.475 7.648Z"/><path fill="#cb4069" d="M218.999 621.391c-6.063 0-13.08-1.773-13.979-7.277-1.147-7.016 1.141-11.527 3.994-12.357 2.705-.784 76.284 6.767 84.666 7.631l.379.04.063.375c.05.296 1.058 7.278-12.788 10.153-8.685 1.802-27.716 1.411-41.611 1.127-8.043-.165-14.397-.295-16.526.015a29.38 29.38 0 0 1-4.198.293Zm-9.018-18.713a3.591 3.591 0 0 0-.69.04c-2.368.689-4.326 4.861-3.284 11.235 1.042 6.381 11.938 6.903 17.046 6.155 2.21-.323 8.602-.191 16.69-.025 13.85.285 32.817.674 41.388-1.107 11.015-2.286 11.973-7.24 12.017-8.637-31.039-3.196-76.743-7.661-83.167-7.661Z"/><path fill="#f94f46" d="M258.612 580.69s2.696-.47 3.693 6.373c1.685 11.575 14.159 17.076 22.5 17.509s11.382 3.92 9.094 7.314-21.698 6.915-40.092 5.164-45.463-4.012-46.203-9.773 1.728-6.217 4.316-15.196 4.462-13.704 7.161-13.363 4.924 11.37 15.1 12.395 15.79-11.395 24.431-10.423Z"/><path fill="#fcfbf0" d="M266.309 619.1h-.009c-15.475-.262-30.495-9.477-38.518-18.495-2.465-2.772-5.091-4.221-7.804-4.307a9.847 9.847 0 0 0-6.47 2.504.5.5 0 1 1-.703-.71 10.438 10.438 0 0 1 7.205-2.793c2.997.095 5.863 1.656 8.52 4.641 7.876 8.855 22.615 17.903 37.787 18.16a.5.5 0 0 1-.009 1ZM394.993 609.658s2.287 6.72-10.768 9.51-52.079.26-57.915 1.128-16.55-.038-18.728-6.52-.916-10.936 1.636-11.71 85.775 7.592 85.775 7.592Z"/><path fill="#cb4069" d="M322.228 621.082c-6.033 0-13.304-1.741-15.12-7.147-1.408-4.193-1.519-7.95-.304-10.305a3.865 3.865 0 0 1 2.268-2.044c2.576-.78 77.443 6.717 85.971 7.574l.32.032.104.305a5.57 5.57 0 0 1-.63 4.305c-1.547 2.725-5.082 4.696-10.508 5.854-8.382 1.79-27.482 1.403-41.426 1.12-8.068-.164-14.444-.294-16.52.015a28.63 28.63 0 0 1-4.154.291Zm-12.192-18.576a3.606 3.606 0 0 0-.678.039 2.893 2.893 0 0 0-1.666 1.544c-1.075 2.085-.94 5.647.364 9.527 1.962 5.84 11.81 7.13 18.181 6.185 2.157-.32 8.568-.19 16.687-.025 13.894.282 32.928.668 41.196-1.097 5.042-1.077 8.442-2.925 9.832-5.344a4.796 4.796 0 0 0 .638-3.215c-31.564-3.172-78.12-7.614-84.554-7.614Z"/><path fill="#f94f46" d="M355.015 580.676s2.616-.468 4.776 6.326c3.652 11.49 17.06 16.951 25.474 17.38s12.05 3.892 10.337 7.26-20.522 6.865-39.214 5.126-46.145-3.983-47.863-9.7.67-6.173 1.733-15.086 2.134-13.604 4.89-13.265 6.857 11.288 17.207 12.304 13.854-11.31 22.66-10.345Z"/><path fill="#fcfbf0" d="M369.153 618.807h-.009c-15.499-.26-32.06-9.392-41.6-18.327-3.221-3.017-6.35-4.463-9.298-4.298a8.03 8.03 0 0 0-5.29 2.444.5.5 0 0 1-.762-.646 8.893 8.893 0 0 1 5.975-2.795c3.233-.185 6.624 1.348 10.06 4.566 9.398 8.804 25.7 17.801 40.933 18.056a.5.5 0 0 1-.01 1Z"/><path fill="#fff" d="M281.438 134.403a.5.5 0 0 1-.474-.343l-10.076-30.62a.5.5 0 1 1 .949-.313l10.076 30.62a.5.5 0 0 1-.475.656ZM298.852 129.61a.5.5 0 0 1-.464-.315l-12.229-30.62a.5.5 0 1 1 .928-.37l12.228 30.62a.5.5 0 0 1-.463.685Z"/><path fill="#bcbec0" d="M358.623 260.502a.5.5 0 0 1-.4-.801c.082-.108 8.265-10.832 25.021-21.772a.5.5 0 1 1 .547.837c-16.611 10.846-24.69 21.43-24.768 21.536a.5.5 0 0 1-.4.2Z"/><path fill="#f4ada2" d="M467.308 207.73s-8.413-.652-10.108 6.717-2.159 14.93 1.304 18.392Z"/><path fill="#5b2448" d="M458.504 233.338a.498.498 0 0 1-.354-.146c-3.881-3.882-2.924-12.397-1.438-18.858 1.772-7.699 10.547-7.109 10.636-7.103a.5.5 0 0 1 .459.537.51.51 0 0 1-.536.46c-.328-.023-8.007-.523-9.584 6.33-1.43 6.214-2.387 14.369 1.17 17.926a.5.5 0 0 1-.353.854Z"/><path fill="#f4ada2" d="M451.265 207.37a17.751 17.751 0 0 1 7.043 8.022c2.348 5.479-5.478.245-5.478.245s-5.527 7.924-10.174 2.641Z"/><path fill="#5b2448" d="M446.204 220.594a5.165 5.165 0 0 1-3.923-1.986.5.5 0 1 1 .75-.66 4.136 4.136 0 0 0 3.384 1.64c3.138-.176 5.977-4.196 6.005-4.237a.501.501 0 0 1 .688-.13c2.24 1.497 4.61 2.482 5.06 2.102.013-.01.306-.276-.319-1.734a17.41 17.41 0 0 0-6.822-7.779.5.5 0 1 1 .476-.879 18.093 18.093 0 0 1 7.266 8.265c.228.534.926 2.16.039 2.896-1.2.996-4.414-.855-5.857-1.779-.854 1.096-3.46 4.104-6.479 4.274-.09.005-.18.007-.268.007Z"/><path fill="#63c144" d="M167.526 589.224s-16.7-52.906 15.414-105.866l16.481 7.697-10.455-13.366s13.133-24.016 36.59-35.45l14.207 14.832-8.71-20.617s21.03-9.779 59.563-11.074c0 0-34.232 44.704-37.74 58.33l-19.403-5.698 13.43 10.958s-25.209 25.505-31.995 40.89l-19.391-5.555 13.32 9.712s-34.106 23.633-41.31 55.207Z"/><path fill="#5ca541" d="M247.1 457.996s-58.4 31.782-75.944 106c0 0 9.842-73.441 75.944-106Z"/><path fill="#67ba31" d="M84.948 468.252s36.475 4.75 59.337 38.86l-9.234 7.757 10.958-2.549s10.766 14.609 11.084 31.908l-6.186 3.42 8.127 1.501s0 15.376-9.993 38.905c0 0-17.307-33.077-24.517-38.995l8.85-10.073-10.343 5.012s-8.287-22.286-15.64-30.667l8.762-10.104-9.563 5.293s-4.674-27.11-21.642-40.268Z"/><path fill="#499331" d="M147.665 572.767s.892-51.247-38.823-82.542c0 0 38.348 41.27 38.823 82.542Z"/><path fill="#b76604" d="M203.668 621.294s-3.804-48.025-49.672-43.553-48.827 44.775-48.827 44.775 92.374 1.526 98.5-1.221Z"/><circle cx="528.575" cy="167.088" r="1.053" fill="#594a42"/><circle cx="539.621" cy="173.258" r="1.053" fill="#594a42"/><circle cx="554.611" cy="172.204" r="1.053" fill="#594a42"/><circle cx="532.766" cy="174.311" r="1.053" fill="#594a42"/><circle cx="543.813" cy="180.48" r="1.053" fill="#594a42"/><circle cx="558.802" cy="179.427" r="1.053" fill="#594a42"/><circle cx="551.035" cy="189.272" r="1.053" fill="#594a42"/><circle cx="538.694" cy="192.06" r="1.053" fill="#594a42"/><circle cx="524.616" cy="186.805" r="1.053" fill="#594a42"/><circle cx="544.969" cy="195.012" r="1.053" fill="#594a42"/><circle cx="532.628" cy="197.8" r="1.053" fill="#594a42"/><circle cx="518.55" cy="192.544" r="1.053" fill="#594a42"/><circle cx="534.765" cy="212.477" r="1.053" fill="#594a42"/><circle cx="545.811" cy="218.647" r="1.053" fill="#594a42"/><circle cx="560.801" cy="217.594" r="1.053" fill="#594a42"/><circle cx="518.956" cy="229.7" r="1.053" fill="#594a42"/><circle cx="539.956" cy="243.7" r="1.053" fill="#594a42"/><circle cx="550.002" cy="225.87" r="1.053" fill="#594a42"/><circle cx="564.992" cy="224.816" r="1.053" fill="#594a42"/><circle cx="557.224" cy="234.661" r="1.053" fill="#594a42"/><circle cx="544.883" cy="237.449" r="1.053" fill="#594a42"/><circle cx="530.805" cy="232.194" r="1.053" fill="#594a42"/><circle cx="535.805" cy="225.194" r="1.053" fill="#594a42"/><circle cx="527.521" cy="209.885" r="1.053" fill="#594a42"/><circle cx="515.18" cy="212.673" r="1.053" fill="#594a42"/><circle cx="521.456" cy="215.625" r="1.053" fill="#594a42"/><circle cx="558.774" cy="197.935" r="1.053" fill="#594a42"/><circle cx="566.786" cy="208.931" r="1.053" fill="#594a42"/><circle cx="552.708" cy="203.675" r="1.053" fill="#594a42"/><path fill="#ffcf2d" d="m553.558 117.08 15.894 14.944 14.946 15.895 45.01-34.604c2.71-12.17-13.573-27.673-13.573-27.673s-15.502-16.284-27.674-13.573Z"/><path fill="#f94f46" d="m548.55 121.685 17.757 13.485 13.485 17.758s4.508 2.728 6.621-.946-12.516-19.46-14.987-21.93-18.258-17.1-21.931-14.988-.945 6.621-.945 6.621Z"/><path fill="#ffcf2d" d="M545.12 156.357s15.389 16.658 36.022-3.148c0 0 .49-4.227-14.079-18.796s-18.796-14.078-18.796-14.078c-19.805 20.633-3.147 36.022-3.147 36.022Z"/><ellipse cx="547.082" cy="154.452" fill="#f9b435" rx="1.134" ry="2.178" transform="rotate(-45 547.082 154.452)"/><ellipse cx="552.855" cy="152.956" fill="#f9b435" rx="1.134" ry="2.178" transform="rotate(-45 552.855 152.956)"/><ellipse cx="548.598" cy="148.699" fill="#f9b435" rx="1.134" ry="2.178" transform="rotate(-45 548.598 148.699)"/><ellipse cx="553.025" cy="157.764" fill="#f9b435" rx="1.134" ry="2.178" transform="rotate(-45 553.026 157.764)"/><ellipse cx="544.057" cy="148.795" fill="#f9b435" rx="1.134" ry="2.178" transform="rotate(-45 544.057 148.795)"/><ellipse cx="500" cy="624.096" fill="#5b2448" rx="447.957" ry="4.14"/><path fill="#5b2448" d="m222.252 205.724-6.268-16.999-42.8 3.713a9.716 9.716 0 0 1-10.54-9.123l-1.945-33.947a9.715 9.715 0 0 1 9.534-10.27l65.479-1.118a9.717 9.717 0 0 1 9.818 10.826l-3.436 29.85a9.749 9.749 0 0 1-8.813 8.569l-7.84.68Zm-5.594-18.061 5.258 14.26 2.676-14.948 8.603-.746a8.745 8.745 0 0 0 7.905-7.687l3.437-29.85a8.715 8.715 0 0 0-8.807-9.712l-65.478 1.117a8.715 8.715 0 0 0-8.554 9.213l1.945 33.947a8.716 8.716 0 0 0 9.455 8.184Z"/><path fill="#f94f46" d="M217.882 152.01a10.47 10.47 0 0 0-15.07.4 10.47 10.47 0 0 0-15.045.948 10.635 10.635 0 0 0 1.1 14.676l12.518 11.445a3.728 3.728 0 0 0 5.267-.236l11.446-12.518a10.635 10.635 0 0 0-.216-14.715Z"/><path fill="#5b2448" d="m731.538 167.302-3.19-17.82-7.839-.68a9.749 9.749 0 0 1-8.813-8.567l-3.436-29.851a9.717 9.717 0 0 1 9.818-10.826l65.479 1.117a9.717 9.717 0 0 1 9.534 10.27l-1.946 33.947a9.715 9.715 0 0 1-10.54 9.123l-42.8-3.712Zm-13.626-66.745a8.716 8.716 0 0 0-8.658 9.712l3.436 29.851a8.744 8.744 0 0 0 7.905 7.686l8.603.747 2.677 14.948 5.256-14.26 43.56 3.779a8.716 8.716 0 0 0 9.456-8.185l1.946-33.947a8.718 8.718 0 0 0-8.553-9.213l-65.479-1.117a6.13 6.13 0 0 0-.149-.001Z"/><path fill="#7ec13d" d="M770.253 120.288c3.182-3.181 3.598-7.923.93-10.59s-7.408-2.251-10.59.93c-2.689 2.689-3.394 6.488-1.94 9.211l-20.21 19.027c-1.03.97-1.363 2.31-.73 2.942l1.013 1.014c.625.625 1.945.307 2.914-.702l19.207-19.995c2.735 1.595 6.653.916 9.406-1.837Z"/><path fill="#7ec13d" d="m737.947 106.733-.278.278a1.004 1.004 0 0 0 0 1.42l5.259 5.259a1.004 1.004 0 0 1 0 1.42l-.04.04a1.004 1.004 0 0 1-1.42 0l-5.26-5.259a1.004 1.004 0 1 0-1.42 1.42l5.26 5.259a1.004 1.004 0 0 1 0 1.42l-.041.04a1.004 1.004 0 0 1-1.42 0l-5.26-5.258a1.004 1.004 0 0 0-1.42 0l-.285.285a1.004 1.004 0 0 0 0 1.42l9.845 9.846a1.004 1.004 0 0 0 1.42 0l2.044-2.044 19.095 20.282c.969 1.03 2.31 1.362 2.941.73l1.014-1.014c.625-.625.308-1.945-.701-2.914l-20.113-19.319 2.046-2.046a1.004 1.004 0 0 0 0-1.42l-9.846-9.845a1.004 1.004 0 0 0-1.42 0Z"/><path fill="#6a74ef" d="m663.987 592.181-218.835-.984a14.38 14.38 0 0 0-14.444 14.316 14.38 14.38 0 0 0 14.315 14.445l24.081.108q5.839.026 11.668-.364l184.19-12.341s10.381 13.72 68.29 13.981 60.172-39.014 53.408-42.957-69.588-14.28-122.673 13.796Z"/><rect width="44.172" height="7.957" x="439.986" y="597.795" fill="#8d9bff" rx="3.978" transform="rotate(.258 462.011 601.703)"/><path fill="#fff" d="m480.197 602.877-36.215-.163a1.891 1.891 0 1 0-.036 2.956l36.215.163a1.891 1.891 0 1 0 .036-2.956ZM677.074 593.593s-2.077 4.926 8.918 6.15 89.768-5.746 92.957-16.2c3.204-10.5-97.099-4.227-101.875 10.05Z"/></svg>