<svg xmlns="http://www.w3.org/2000/svg" enable-background="new 0 0 3000 3000" viewBox="0 0 3000 3000"><polygon fill="#efefef" points="2691.5 459.4 2691.5 620.5 2498 620.5 2498 824.4 2300 824.4 2300 166.8 2069.1 166.8 2069.1 519.4 1867 519.4 1867 781.6 1655 781.6 1655 329.9 1575 329.9 1575 50 1425 50 1425 329.9 1345 329.9 1345 729.8 1133 729.8 1133 403.4 930.9 403.4 930.9 166.8 700 166.8 700 410.1 502 410.1 502 672.3 308.5 672.3 308.5 459.4 50 304.1 50 1768.6 2950 1768.6 2950 304.1"/><path fill="#e0e0e0" d="M2829.9,1944.7c-34.9-94.6-171.5-0.5-201.9,114.7c-20,20.6-41.2,45.5-63.4,74.8
			c9.9-118.6-89.6-254.8-154.3-178.2c-64.9,76.8,113,170.4,147.3,187.4c-39.1,52.6-81.5,118.4-127.2,197.2
			c7.6-117.7-90.5-250.5-154.6-174.6c-64.8,76.8,112.6,170.1,147.2,187.4c-35.4,61.8-72.8,131.4-112,208.5
			c8.6-118.1-90-252.5-154.5-176.2c-65.7,77.8,117.2,172.6,148.5,188c-54.6,108-112.8,230.7-174.5,367.9c-1.3,2.9,0,6.4,2.9,7.7
			c0.8,0.3,1.6,0.5,2.4,0.5c2.2,0,4.3-1.3,5.3-3.4c6.8-15.2,13.6-30.2,20.4-45c34.8,15.4,220.9,92.4,237.7-7
			c16.5-97.5-145.3-88.4-230.7-8.4c34.4-75.4,67.7-146.1,99.8-212c37.1,16.3,220,91.1,236.7-7.5c16.3-96.3-141.3-88.7-227.5-11.4
			c37.5-76.6,73.5-146.5,107.7-209.9c30.7,13.7,221.9,94.5,239-6.5c16.6-97.7-146-88.4-231.2-7.9c44.7-81.9,86.5-152.3,125.4-211.2
			c34,15,221.1,92.8,238-6.9c16.1-94.7-136.3-88.8-223.3-15c36.4-53.4,70.2-96.2,101.2-128.3
			C2677.9,2064.4,2863.9,2037.1,2829.9,1944.7z"/><g><polygon fill="#fff" points="649.4 2947.1 474.6 2947.1 844.8 1369 1019.7 1369"/><polygon fill="#fff" points="1513.3 2947.1 1338.5 2947.1 968.2 1369 1143.1 1369"/><rect width="1351.4" height="1701.6" x="313.9" y="858.4" fill="#fff"/><path fill="#333" d="M1665.3,855.5H313.9c-1.6,0-2.9,1.3-2.9,2.9V2560c0,1.6,1.3,2.9,2.9,2.9h247.8l-90,383.5
						c-0.5,1.8,1,3.6,2.8,3.6h174.8c1.3,0,2.5-0.9,2.8-2.2l90.3-384.9h502.8l90.3,384.9c0.3,1.3,1.5,2.2,2.8,2.2h174.8
						c0.9,0,1.7-0.4,2.3-1.1c0.5-0.7,0.8-1.6,0.5-2.5l-90-383.5h239.1c1.6,0,2.9-1.3,2.9-2.9V858.4
						C1668.2,856.8,1666.9,855.5,1665.3,855.5z M647.1,2944.2H478.2l89.5-381.3h168.9L647.1,2944.2z M1509.7,2944.2h-168.9
						l-89.5-381.3h168.9L1509.7,2944.2z M1662.4,2557.1H316.8V861.3h1345.6V2557.1z"/><g><path fill="#333" d="M817.8,1085.9c-5.3,0.1-16.6,15.8-34,47.1c-5.9,10.5-9.3,16.3-10.2,17.2c-3,3-11.7,5.6-14.7,1.6
						c-3.6-4.8-2.8-14.8-2.8-20.3c0-21.7,7.6-42.9,7.6-64.5c0-3.8,1.7-5.6,5-5.6c6.3,0,9.5,4.6,9.5,13.7c0,17.2-6.6,33.9-6.9,51.1
						c3.5-3.4,8.7-10.9,15.5-22.5c9.7-15.8,16.8-25.9,21.4-30.1c7.3-6.8,18.3-9.8,23.1,1.1c2.2,5,3.5,16.8,4,35.5
						c0,1.3,0.4,13.8,2.9,13.8c2.7,0,8.5-9.1,17.4-27.4c4.8-9.6,9.4-17,14-22c6.7-7.4,20.1-11.9,25.1-0.4c4,9.1,4.2,19.4,5.3,29.1
						c1.1,9.8,1.9,24,9.8,31c2.5,2.3,8.2,3.4,8.2,7.6c0,4.9-7.3,9.2-11.6,9.3c-11.8,0.3-16.8-16.7-18.4-25.7
						c-2.1-11.5-1.5-23.4-4.2-34.8c-0.7-3.1-1.9-4.7-3.5-4.7c-2.4,0-5.2,2.3-8.5,6.8c-3.3,4.6-8.6,13.8-15.8,27.8
						c-5.7,10.9-10,18.1-12.9,21.8c-6.5,8-16.8,6-18.7-4.6c-0.5-2.8-1.1-9.6-1.6-20.4C821.6,1099.3,820,1088.9,817.8,1085.9z"/><path fill="#333" d="M1006.1,1124.5c0,9-9.9,16.8-16.3,21.7c-8.9,6.9-19.5,11.6-30.9,11.6c-18.2,0-28.7-13.1-28.7-30.8
						c0-16.3,5.5-31.8,16.5-46.5s23-22.1,36-22.1c8,0,14.5,6.2,14.5,14.3c0,8.8-4.3,17.2-12.9,25.2c-8.6,8-20.1,15.9-34.5,23.7
						c-3,1.5-4.4,3.5-4.4,6c0,9.7,6.7,15.6,16.2,15.6c12.2,0,24.7-6.8,37.5-20.3c1.9-1.9,3.3-2.8,4.3-2.8
						C1005.2,1120.2,1006.1,1121.6,1006.1,1124.5z M946.8,1111.2c24.1-14.4,36.2-25.9,36.2-34.6c0-3.4-1.5-5.1-4.6-5.1
						c-5.2,0-11.1,3.8-17.7,11.5C954.1,1090.7,949.5,1100.1,946.8,1111.2z"/><path fill="#333" d="M1082.1,1087.8c-6.1,0-10.6,6.6-13.7,11.1c-4.5,6.6-8.3,13.7-12,20.8c-9.4,18.1-15.6,28.4-18.3,30.9
						c-2.8,2.5-5.1,3.8-6.9,3.8c-6.7,0-10.1-3.2-10.1-9.7c0-2.7,0.5-6.6,1.4-11.6c3.1-17.2,4.7-35.4,4.7-54.4c0-3.7,3.6-11.2,8-11.2
						c7.9,0,8.2,7.7,8.2,13.8c0,5.8-1.7,17.6-5.1,35.6c-0.1,0.7-2.8,12.6-1,12.6c0.9,0,4.8-6.8,11.9-20.4
						c7.1-13.8,17.8-37.7,36.4-37.7c24.1,0,18.5,44.4,23.9,58.8c1,2.6,2.6,4.7,5.4,5.1c3.1,0.5,5.5-2.2,8.4-2.2
						c8,0,1.1,10.2-1.4,12.3c-6.7,5.6-18,6.2-23.4-1.5c-2.6-3.8-4.7-14.1-6.3-30.8C1090.6,1096.1,1087.2,1087.8,1082.1,1087.8z"/><path fill="#333" d="M1200.2,1116.3c-7.3,12.3-14.7,21.7-22.4,28.5c-6.5,5.7-17.2,13.2-26.2,8.8c-20.3-9.8-11-42.2-7-58.5
						c3-12.1,4.5-20.7,4.5-25.6c1.6-3.4,4.2-5.1,7.8-5.1c4.2,0,7.9,3.5,7.9,7.8c0,4-1.4,9.7-4.2,17c-2.3,6.3-17.5,52.5,0,50.7
						c7.7-0.8,14.7-8.6,19.6-14c7.8-8.6,13.6-19,18.1-29.7c2.8-6.6,6-25.8,15.8-25.8c8.2,0,5.2,10.3,3.9,15
						c-3,11.2-4.8,22.7-4.8,34.3c-0.8,17.8,4.5,22.4,10,31c0,4-6.5,6.3-9.7,6.3c-4,0-7.2-3-9.6-8.9
						C1199.8,1138.5,1199.6,1126.7,1200.2,1116.3z"/><path fill="#333" d="M610.3,1289.9c63.2-1.2,126.4-1.8,189.7-2.2l189.7-0.7l189.7,0.7l94.8,0.8l94.8,1.4l-94.8,1.4l-94.8,0.8
					l-189.7,0.7l-189.7-0.7C736.7,1291.7,673.5,1291.1,610.3,1289.9z"/><g><path fill="#333" d="M1511,2161.3h-23.2v-5.8h23.2V2161.3z M1464.6,2161.3h-23.2v-5.8h23.2V2161.3z M1418.2,2161.3H1395v-5.8
						h23.2V2161.3z M1371.8,2161.3h-23.2v-5.8h23.2V2161.3z M1325.4,2161.3h-23.2v-5.8h23.2V2161.3z M1279,2161.3h-23.2v-5.8h23.2
						V2161.3z M1232.6,2161.3h-23.2v-5.8h23.2V2161.3z M1186.2,2161.3H1163v-5.8h23.2V2161.3z M1139.8,2161.3h-23.2v-5.8h23.2
						V2161.3z M1093.4,2161.3h-23.2v-5.8h23.2V2161.3z M1047,2161.3h-23.2v-5.8h23.2V2161.3z M1000.6,2161.3h-23.2v-5.8h23.2V2161.3
						z M954.2,2161.3H931v-5.8h23.2V2161.3z M907.8,2161.3h-23.2v-5.8h23.2V2161.3z M861.4,2161.3h-23.2v-5.8h23.2V2161.3z
						 M815,2161.3h-23.2v-5.8H815V2161.3z M768.6,2161.3h-23.2v-5.8h23.2V2161.3z M722.2,2161.3H699v-5.8h23.2V2161.3z
						 M675.8,2161.3h-23.2v-5.8h23.2V2161.3z M629.4,2161.3h-23.2v-5.8h23.2V2161.3z M583,2161.3h-23.2v-5.8H583V2161.3z
						 M536.6,2161.3h-23.2v-5.8h23.2V2161.3z M490.2,2161.3H467v-5.8h23.2V2161.3z"/><path fill="#333" d="M1511,2359.9h-23.2v-5.8h23.2V2359.9z M1464.6,2359.9h-23.2v-5.8h23.2V2359.9z M1418.2,2359.9H1395v-5.8
						h23.2V2359.9z M1371.8,2359.9h-23.2v-5.8h23.2V2359.9z M1325.4,2359.9h-23.2v-5.8h23.2V2359.9z M1279,2359.9h-23.2v-5.8h23.2
						V2359.9z M1232.6,2359.9h-23.2v-5.8h23.2V2359.9z M1186.2,2359.9H1163v-5.8h23.2V2359.9z M1139.8,2359.9h-23.2v-5.8h23.2
						V2359.9z M1093.4,2359.9h-23.2v-5.8h23.2V2359.9z M1047,2359.9h-23.2v-5.8h23.2V2359.9z M1000.6,2359.9h-23.2v-5.8h23.2V2359.9
						z M954.2,2359.9H931v-5.8h23.2V2359.9z M907.8,2359.9h-23.2v-5.8h23.2V2359.9z M861.4,2359.9h-23.2v-5.8h23.2V2359.9z
						 M815,2359.9h-23.2v-5.8H815V2359.9z M768.6,2359.9h-23.2v-5.8h23.2V2359.9z M722.2,2359.9H699v-5.8h23.2V2359.9z
						 M675.8,2359.9h-23.2v-5.8h23.2V2359.9z M629.4,2359.9h-23.2v-5.8h23.2V2359.9z M583,2359.9h-23.2v-5.8H583V2359.9z
						 M536.6,2359.9h-23.2v-5.8h23.2V2359.9z M490.2,2359.9H467v-5.8h23.2V2359.9z"/></g><g><path fill="#e0e0e0" d="M994.5,1553.4c-107.6,0-194.8,87.2-194.8,194.8c0,107.6,87.2,194.8,194.8,194.8s194.8-87.2,194.8-194.8
							C1189.2,1640.6,1102,1553.5,994.5,1553.4z"/><path fill="#fff" d="M994.5,1888.9c-77.7,0-140.7-63-140.7-140.7c0-77.7,63-140.7,140.7-140.7c77.7,0,140.7,63,140.7,140.7
							C1135.1,1825.9,1072.1,1888.8,994.5,1888.9z"/><path fill="#e0e0e0" d="M891.6,1751.2c-1.6,0-2.9-1.3-2.9-2.9c0-58.4,47.4-105.9,105.7-105.9c1.6,0,2.9,1.3,2.9,2.9
							s-1.3,2.9-2.9,2.9c-55.1,0-99.9,44.9-99.9,100.1C894.5,1749.9,893.2,1751.2,891.6,1751.2z"/><path fill="#ffdf57" d="M1379.4,1574.1c0-59.9-28.8-129.6-66.1-129.6c-37.3,0-66.1,69.7-66.1,129.6c0,46.2,18.1,76.3,49.4,84
						l-7.6,325.3c-0.2,7.8,2.2,15.3,6.9,20.9c9.4,11.4,24.8,11.7,34.4,0.5c0.2-0.2,0.3-0.4,0.4-0.5c4.6-5.5,7.1-13.1,6.9-20.9
						l-7.6-325.3C1361.3,1650.5,1379.4,1620.3,1379.4,1574.1z"/><path fill="#ffdf57" d="M731.7,1573.5c0.8-1.8,0-117.3,0.3-119.2c0-5.4-4.2-9.8-9.4-9.8s-9.4,4.4-9.4,9.8v98h-18.9v-98
						c0-5.4-4.2-9.8-9.4-9.8c-5.2,0-9.4,4.4-9.4,9.8v98h-18.9v-98c0-5.4-4.2-9.8-9.4-9.8s-9.4,4.4-9.4,9.8v98h-18.9v-98
						c0-5.4-4.2-9.8-9.4-9.8s-9.4,4.4-9.4,9.8c0,0,0.1,118.7,0.3,119.2c2.4,44.9,19.2,74.6,46.8,83.7l-8.7,326.2
						c-0.3,7.8,2.6,15.3,7.8,20.9c10.7,11.4,28.3,11.7,39.3,0.5c0.2-0.2,0.3-0.4,0.5-0.5c5.3-5.5,8.1-13.1,7.8-20.9l-8.7-326.1
						C712.5,1648.1,729.3,1618.4,731.7,1573.5z"/></g></g><g><path fill="#333" d="M2216,1469.5c0-1.6-1.3-2.9-2.9-2.9h-112.3h-272.7h-205.5c-1.4,0-2.6,1-2.8,2.4l-283.4,1477.5
				c-0.4,1.7,1.1,3.5,2.8,3.4h323.2c1.3,0,2.4-0.8,2.8-2.1l216.8-730.6l55.4,730c0.1,1.5,1.4,2.7,2.9,2.7h294.1c1.6,0,3-1.4,2.9-2.9
				L2216,1469.5z"/><path fill="#fff" d="M1417.8,731.4c0,0-285.4-192-285.4-209.4s-93.2-81.4-93.2-52.4s40.8,52.4,40.8,52.4s-96.1-11.7-222.8-59.8
				c13.1,82.4,234.4,147.1,234.4,147.1s233,314.1,337.8,308.3L1417.8,731.4z"/><polygon fill="#fff" points="1934.1 378.9 1934.1 663.7 2080.1 629.7 2054.5 327.8"/><path fill="#fff" d="M1891.7,366c4.9,47.1,46.6,109.9,102,91.5c63.9-21.3,85.2-68.1,85.2-89.4s17-157.4-102.2-157.4
				C1886.7,210.6,1886.4,314.8,1891.7,366z"/><path fill="#333" d="M2081.8,368.1c0.4-14.9,1.7-28.6-0.1-51c10.4-17.1,16.5-37.2,16.5-58.7c0-62.6-50.8-113.3-113.4-113.3
				s-113.4,50.7-113.4,113.3c0,21.1,6,40.8,16.1,57.7c-1.1,18.8,0,36.7,1.4,50.2c2.6,25.6,17,60.2,42.4,80.9v216.6
				c-0.1,1.8,1.8,3.3,3.6,2.8l146-34c1.4-0.3,2.4-1.6,2.2-3.1L2064.5,412C2076.6,395.8,2081.8,379.5,2081.8,368.1z M1894.6,365.7
				c-3-28.8-4.4-77.9,13.7-112.4c3,5.3,6.3,10.5,9.9,15.4c0.6-9.1,2-18.1,4.4-26.9c16,23.8,30.9,48.3,44.6,73.5
				c-1.1-20.7-0.3-41.4,2.5-61.9c8,9.1,16,18.2,24,27.3c2.3-12.4,4.3-25,5.9-37.5c19.7,22,39.4,44,59.1,66.1
				c0.8-16.2,1.6-32.4,2.3-48.7c19.7,40.4,15.5,82,14.9,107.6c0,19.2-20.3,65.7-83.2,86.6c-17.7,5.9-34.8,3.6-50.9-6.8
				C1913.3,429.4,1897.4,392.3,1894.6,365.7z M2077,627.4l-140,32.6V451.5c0.6,0.4,1.2,0.9,1.8,1.2c17.4,11.2,36.7,13.8,55.9,7.4
				c29.8-9.9,50.7-25.4,64.6-41.6L2077,627.4z"/><path fill="#fff" d="M930.1,241V75.8c0-1.9,1.6-3.5,3.5-3.5h33.8c1.9,0,3.5,1.6,3.5,3.5V241H930.1z"/><path fill="#333" d="M970.8,243.9h-40.8c-1.6,0-2.9-1.3-2.9-2.9V92.6c0-12.8,10.4-23.2,23.2-23.2c13,0,23.4,10.4,23.4,23.2V241
						C973.7,242.6,972.4,243.9,970.8,243.9z M933,238.1h35V92.6c0-9.6-7.8-17.4-17.4-17.4c-9.8,0-17.6,7.8-17.6,17.4V238.1z"/><path fill="#ffdf57" d="M1253.3,444.7H647.6v-8.4c0-167.3,135.6-302.9,302.9-302.9h0c167.3,0,302.9,135.6,302.9,302.9V444.7z"/><path fill="#fff" d="M1293.5,462.1H607.4c-1.9,0-3.5-1.6-3.5-3.5v-33.7c0-1.9,1.6-3.5,3.5-3.5h686.1c1.9,0,3.5,1.6,3.5,3.5
						v33.7C1297,460.5,1295.4,462.1,1293.5,462.1z"/><path fill="#333" d="M1420.7,731.2c-0.1-0.9-0.5-1.7-1.3-2.2c-108-72.7-280.7-193.2-284.1-207c0-12.9-39.9-44-68.2-56.9h209.6
						c12.8,0,23.2-10.4,23.2-23.3c0-12.8-10.4-23.2-23.2-23.2H624.2c-12.8,0-23.2,10.4-23.2,23.3c0,12.8,10.4,23.2,23.2,23.2H855
						c16.6,80.1,217.3,141.5,235,146.7c16.5,21.2,233.1,312.4,339.7,308.7c1.6-0.1,2.9-1.5,2.7-3.1L1420.7,731.2z M606.8,441.7
						c0-9.6,7.8-17.4,17.4-17.4h652.5c9.6,0,17.4,7.8,17.4,17.5c0,9.6-7.8,17.4-17.4,17.4H624.2
						C614.6,459.2,606.8,451.4,606.8,441.7z M1037.2,465c-0.5,1.3-0.8,2.9-0.8,4.6c0,20.7,18.8,38.2,31.3,47.6
						c-28.5-4.7-102.6-18.9-194.1-52.2H1037.2z M1094,607.5c-0.4-0.5-0.9-0.9-1.5-1.1c-2.1-0.6-210.6-62.4-231.3-139.7
						c123.1,46.1,217.5,58,218.5,58.1c3,0.5,4.5-4,1.8-5.4c-0.4-0.2-39.3-22.7-39.3-49.8c0.2-4.5,2.2-4.3,5.1-4.6
						c22,0,82.3,44.6,82.3,56.9c0,17.5,216.9,164.9,285.5,211l11.4,181.7C1322.9,914.5,1096.3,610.6,1094,607.5z"/><path fill="#f96e6e" d="M1938.7,489.9h-34.5l-5.8,40.7c0,0-116.5,11.6-122.3,11.6c-52.7,0-163.1,93.1-238.8,116.3
				s-168.9,29.1-168.9,29.1l-11.6,209.4c99,81.4,302.9-23.3,302.9-23.3c17.5,133.8-67.8,666.3-67.8,666.3h158.1l200.9-945.5
				l-12.1-47.6V489.9z"/><path fill="#ff8080" d="M2678.8,1071.7c-46.6-98.9-273.7-430.5-372.8-465.4c-99-34.9-203.9-93.1-203.9-93.1l-13.6-52.4l-37-5.8
				l0.5,133.9l-165.3-0.1c0,0-145.6,221.1-163.1,372.3c-17.5,151.3-81.5,616.7-81.5,616.7h623.2c-2.4,16.9-87.9-298.5,34.9-587.6
				l157.3,93.1l-69.9,116.3l209.7,93.1C2597.3,1292.8,2725.4,1170.6,2678.8,1071.7z"/><g><path fill="#fff" d="M2403.2,1206.6c-40.1,28.2-124.9,86.9-170.2,112.1c-14.8,8.2-25.5,13-28.9,11.8c0,0-53-80-69.9-75.6
					c-31.1,8,0,69.8,0,69.8s-203.8,5.8-174.7,87.3c27.1,75.9,172.7,66.8,277.9,29.6c109.5-38.7,210.5-109.8,307.8-172L2403.2,1206.6
					z"/><path fill="#333" d="M2084,1472.2c-60.1,0-111.8-16-127.3-59.2c-5.1-14.3-3.7-27.3,4.1-38.8c29.8-43.6,144.4-51.1,168.9-52.2
					c-5-11-17.5-41.7-9.7-58.8c2.6-5.7,7.1-9.4,13.5-11.1c17.6-4.5,61.7,59.8,72.3,75.7c1.9-0.2,8-1.7,25.8-11.6
					c44.3-24.7,125.5-80.7,170-111.9l3.3,4.7c-44.5,31.3-125.9,87.4-170.5,112.3c-22.2,12.4-28.2,13-31.2,12.1
					c-0.6-0.2-1.1-0.6-1.5-1.2c-21.5-32.5-56.4-77.1-66.8-74.4c-4.6,1.2-7.8,3.8-9.6,7.9c-8.2,18.1,11.3,57.5,11.5,57.8
					c1,1.8-0.5,4.2-2.5,4.2c-1.4,0-137.7,4.5-168.6,49.8c-6.8,10-7.9,21-3.4,33.6c27.3,76.4,176.8,62.3,274.2,27.9
					c93.4-33,180.6-89.6,264.9-144.4c14.2-9.2,28.3-18.4,42.3-27.3l3.1,4.9c-14,9-28.1,18.1-42.3,27.3
					c-84.6,55-172.1,111.8-266.1,145C2192.5,1460.6,2135.2,1472.2,2084,1472.2z"/></g><g><circle cx="1895.4" cy="759.7" r="17.5" fill="#fff"/><circle cx="2019.2" cy="777.2" r="17.5" fill="#fff"/><circle cx="1848.8" cy="922.6" r="17.5" fill="#fff"/><circle cx="1972.6" cy="940.1" r="17.5" fill="#fff"/><circle cx="1802.2" cy="1085.5" r="17.5" fill="#fff"/><circle cx="1926" cy="1103" r="17.5" fill="#fff"/><circle cx="1767.3" cy="1236.8" r="17.5" fill="#fff"/><circle cx="1891.1" cy="1254.2" r="17.5" fill="#fff"/><circle cx="1732.4" cy="1388" r="17.5" fill="#fff"/><circle cx="1856.1" cy="1405.5" r="17.5" fill="#fff"/></g><g><path fill="#f96e6e" d="M1868.1,259.6c0,0-53.3-40.4-53.3-66s12.8-102.1,34.1-114.9c21.3-12.8,119.3-42.6,153.4-21.3
					s51.1,12.8,76.7,25.5c25.6,12.8,42.6,46.8,63.9,68.1c0,0,25.6,29.8,42.6,42.6c17,12.8,46.1,157-87.7,99.8l-18.8-82.7
					l-144.8-37.2L1868.1,259.6z"/><path fill="#ff8080" d="M1874,282.6c0,0,19.8-104.6,120.7-87c98,17,94.9,110.8,94.9,110.8l21.3-34c0,0,0-106.4-115-119.1
					c-112.1-12.4-127.8,106.4-127.8,106.4L1874,282.6z"/><path fill="#ed5858" d="M1874,193.3c-18.9,2.7-44.7-34.9-53.4-46.9c-0.4,1.9-0.7,3.7-1.1,5.6C1825,176.6,1848.8,197.3,1874,193.3z
						"/><path fill="#ed5858" d="M1891.4,152.3c-19.4,2.8-48.6-42.7-56.8-53.8c-0.4,1-0.9,2-1.3,3C1839.3,127,1864.9,155,1891.4,152.3z"/><path fill="#ed5858" d="M1922.1,121.3c-0.8-0.3-1.5-0.8-2.3-1.1C1920.6,120.6,1921.3,121,1922.1,121.3L1922.1,121.3z"/><path fill="#ed5858" d="M1926,138c-14.7-8.8-27.2-60.4-29.5-76.9c-1.4,0.4-2.9,0.8-4.3,1.2C1887.3,85.4,1904.5,127.1,1926,138z"/><path fill="#ed5858" d="M1970.1,116c0.7,0.5,1.3,1,2.1,1.4C1971.4,117,1970.8,116.5,1970.1,116z"/><path fill="#ed5858" d="M1970.1,121.3c-14.5-11.7-15.1-56.4-14.8-70.9c-0.9,0.1-1.8,0.1-2.7,0.2
						C1941.7,73.7,1949.1,106.7,1970.1,121.3z"/><path fill="#ed5858" d="M2016.6,133.6c-11-12.4-7.6-53.8-4.8-70.8c-1.3-0.7-2.7-1.4-4.1-2.2C1996,81.3,1999.4,116.8,2016.6,133.6z
						"/><path fill="#ed5858" d="M2061.4,152.3c-10.7-13.9,4.8-55.8,11.6-71.9c-1.4-0.5-2.7-1-4-1.5C2052.1,96.8,2046.8,131.7,2061.4,152.3
						z"/><path fill="#ed5858" d="M2103.7,189.4L2103.7,189.4c-9.8-12.8,9.6-48.2,16.5-65.6c-1.2-1.5-2.3-3-3.5-4.5
						C2101,137.2,2089.5,169.3,2103.7,189.4z"/><path fill="#ed5858" d="M2130.6,242c-7-15.2,19.2-56.8,29.7-71.8c-1.2-1.2-2.3-2.4-3.4-3.6C2137.4,180.6,2121.2,219.1,2130.6,242z
						"/><path fill="#ed5858" d="M2147.6,287.8c-1.5-16.6,36-50,51-60.7c-0.3-1.7-0.6-3.3-0.9-4.9C2174.1,228.6,2146.3,262.8,2147.6,287.8z
						"/></g></g></g></svg>